<svg xmlns="http://www.w3.org/2000/svg" viewBox="87 562 42 49">
  <polygon
    id="alacanti"
    class="pv"
    points="87.9,587.3 91.1,586.1 93.2,582.9 93,581.7 94.4,581.7 95.2,580.9 96.2,583.7 97.4,584.4 102.5,583.9 103.1,581.1 102.8,580 103.8,579 104.3,577.1 102.6,572.1 102.8,570.5 101.3,569.7 107.3,567.6 109.3,566 109.9,564.9 110.2,563.1 111.8,562 112,563 113.9,565.3 114.8,565 115.7,564.2 117.1,563.7 120.2,566.4 123.9,567 117.7,572 119.3,573.8 119.3,575 118.7,576.4 119.5,576.8 122.2,576.6 123.4,577.7 124.5,578 126.8,581.4 128.1,582.3 128.9,583.7 120.6,590 119.3,592.5 118.5,593.1 117.8,594.6 118.2,600.7 115.5,600.4 115,599.6 114,599.3 110.9,601.3 110.6,602.4 109.8,602.8 108.6,602.5 107.8,602.9 106.6,610.5 105.8,610.2 104.5,606.8 103.8,606.5 102.6,606.9 101.2,606.8 96.9,602 94.3,601.3 92.7,596.5 94.4,594.7 89.4,590.7 87.9,587.3 87.9,587.3 "
    data-comarca="Alacanti"
    data-capital="Alacant"
    data-pais="Pais Valencia"
    style="fill:#cccccc;stroke:#000000;stroke-width:0.5;"
  />
</svg>