<svg xmlns="http://www.w3.org/2000/svg" viewBox="119 340 33 47">
  <polygon
    id="alcalaten"
    class="pv"
    points="125.4,344.4 127.2,343.4 128.2,342 131.8,340.3 133.3,340.6 134,340.2 135.8,340 137,340.3 137.7,341 137.4,341.7 138.3,342.7 139,342.7 139.1,343.6 138.8,344.1 139.5,344.6 138.8,346.5 140,348.6 139.9,350.9 142.2,351.8 142.2,353.5 143.5,354.9 143.6,353.4 145.8,351.6 148.2,352.8 147.3,356.9 148.2,358 148.7,358.2 149.2,357.1 149.9,357.9 149.7,359.4 150.7,359.7 151.7,364.2 148.7,371.3 146.2,371.5 145.1,372.9 145.6,373.9 144.7,374.6 145,376.4 144.3,376.8 143,378.6 143,379.5 144.3,380.7 143.9,381 143.2,385.4 138.6,386.6 138,385.4 131.3,382 130.1,382 129.9,381 128.6,380.3 127.3,378.5 127.6,375.3 125.6,370.6 123.5,369.2 123.4,366.5 123.9,365.3 127.6,363.3 127.6,361.1 122.6,357.5 121,354.5 121.2,351.6 119.9,350.1 121.4,348.4 122.6,348.7 123.1,347.7 124.1,347.7 124.6,346.3 125.2,345.9 125.4,344.4 125.4,344.4 "
    data-info="<div>Comarca: Alcalatén</div><div>Capital: L'Alcora</div><div>País Valencià</div>"
    style="fill:#cccccc;stroke:#000000;stroke-width:0.5;"
  />
</svg>