<svg xmlns="http://www.w3.org/2000/svg" viewBox="73, 548, 55, 37">
	<polygon
		id="alcoia"
		class="pv"
		points="75.7,559.8 73.9,554.5 74.1,552 74.8,550.7 75.1,551.3 76.8,550.5 78.3,550.9 80.1,549.3 82.2,549.1 83.9,548 84.8,548 85.6,548.8 86.9,549.2 87.8,551.2 89.7,550.3 91,551.8 92.2,551.4 94.2,551.9 94.2,555 95.7,556.9 96.7,557.2 100.4,554.4 103.2,553.6 105.5,551.1 108.1,550.2 109.2,550.6 109.4,551.4 113.9,554.2 114,555 115.1,557.1 120.2,556.9 121.5,555.8 120.9,555 121.4,554.2 122.7,554.7 123.4,557.5 124.4,557.6 124.5,559 123.5,560.8 123.7,562.1 125.8,562 126.1,562.6 127.1,563.3 126.1,563.8 125.6,564.4 125.6,565.6 123.9,567 120.2,566.4 117.1,563.7 115.7,564.2 114.8,565 113.9,565.3 112,563 111.8,562 110.2,563.1 109.9,564.9 109.3,566 107.3,567.6 101.3,569.7 102.8,570.5 103.5,575.8 104.3,577.1 103.8,579 102.8,580 103.1,581.1 102.5,583.9 97.4,584.4 96.2,583.7 95.2,580.9 94.4,581.7 93,581.7 92.5,580.5 79.2,569.9 75.7,559.8 75.7,559.8 "
		data-info="<div>Comarca: Alcoià</div><div>Capital: Alcoi</div><div>País Valencià</div>"
		style="fill:#cccccc;stroke:#000000;stroke-width:0.5;"
	/>
</svg>