<svg xmlns="http://www.w3.org/2000/svg" viewBox="125 317 46 43">
	<polygon
		id="alt_maestrat"
		class="pv"
		points="131.8,340.3 125.4,330.4 125.9,329.2 133.9,326.5 134.2,327 138.1,328.2 141.8,327.9 142.7,326.9 143.3,325.6 146.4,322.5 147,323 148.5,322.2 149.2,322.6 150.6,322.5 151.1,324.2 152,325.2 151.9,326.1 153,327.4 155.3,334.7 155.2,329.7 156,328.6 156.2,327.1 158.1,324.5 158.4,322.6 159.4,321.9 160.1,320.5 159.8,319.8 160.3,319.3 165.4,319.9 167.6,317.3 168.5,317.5 169,318.1 167.2,323.1 168.3,326.3 168.2,327.8 168.8,329.7 170.4,330.3 169.8,332.6 169,333.8 169,334.3 168,335.7 167.1,340.1 161.7,346.6 156.3,347.1 155.8,346.7 154.8,348.1 154.6,349.4 153.6,349.8 153.4,351.6 152.8,352.4 152.5,354 151.3,354.6 151.8,355.6 150.7,359.7 149.7,359.4 149.9,357.9 149.2,357.1 148.7,358.2 148.2,358 147.3,356.9 148.2,352.8 145.8,351.6 143.6,353.4 143.5,354.9 142.2,353.5 142.2,351.8 139.9,350.9 140,348.6 138.8,346.5 139.5,344.6 138.8,344.1 139.1,343.6 139,342.7 138.3,342.7 137.4,341.7 137.7,341 137,340.3 135.8,340 134,340.2 133.3,340.6 131.8,340.3 131.8,340.3 "
		data-info="<div>Comarca: Alt Maestrat</div><div>Capital: Albocàsser</div><div>País Valencià</div>"
		style="fill:#cccccc;stroke:#000000;stroke-width:0.5;"
	/>
</svg>