<svg xmlns="http://www.w3.org/2000/svg" viewBox="266 58 56 80">
	<polygon
		id="alt_urgell"
		class="cat"
		points="287.4,130.3 288.4,129.8 289,129.8 290.4,128.6 289.6,126.4 289.9,124.3 289.5,123.4 289.7,119.6 289.3,119.3 288.6,119.7 287.2,119.1 286.2,117 286.5,114.5 288.3,113.2 288.7,112.6 289.6,112.3 290,111 289.5,110.6 289.4,110 291.2,109.3 293.4,109.6 295,108.5 296.4,108.4 296.8,109.3 298.2,110 304.8,105 304.9,104.4 305.5,104 305.5,102.5 307.2,101.8 313.7,102.8 313.6,101.1 316,96.7 320.2,95.4 320.2,95 321.3,94.4 320.7,92.9 319.1,92.4 318.2,92.4 317.2,91.4 317.5,85.5 317.9,84.9 317.1,83.4 317.7,81.7 317.2,81.5 317.5,79.9 317.1,78 312.1,74 311.6,71.7 308.5,69.7 307.6,70.1 307.9,70.9 307.2,72.8 304,73.5 297.2,72.4 297.2,71.6 296.8,70.9 297.1,69.5 296.5,68.8 296.7,67.6 294.6,66.4 295,65.6 296.7,65 299,62.9 297.7,61 297.5,59.5 296.5,58.7 292.3,61.2 291.7,62 290.3,62.8 289.3,62.1 288.9,66.3 287.4,67.1 287.4,67.7 284.9,71.7 283.7,71.1 280.5,72 279.1,70.9 278.6,72.3 279.4,75.2 278.3,75.2 277.9,75.8 278.1,79.3 277.2,81.6 274.7,82.8 273.8,84 272.7,84.3 270.3,89.5 267.5,89.8 267.3,90.6 266.6,91.4 269.3,93 269.9,93.8 270,94.7 269.4,95.9 270.1,97.6 268.4,98.9 268.8,100.4 270.8,101.1 271,103.4 270.2,104.5 272.1,105.8 272.7,107.3 272.4,108.9 270.7,109.9 270.6,111.4 270,112.2 270.1,113.6 270.8,113.6 271.2,118.7 272.4,118 272.9,118.2 274.1,117.7 274.9,119 275.9,119 276.2,119.4 276.3,120.3 277.6,120.6 278.3,122.7 277.5,123.1 278.1,124.8 277.9,126.1 279.4,128.4 280.7,129.2 280,132 280.5,132.9 279.1,137.1 283.3,134.8 283.1,134.1 284.9,130.8 285.8,131.4 285.3,129.9 286.7,130.5 287.4,130.3 "
		data-info="<div>Comarca: Alt Urgell</div><div>Capital: La Seu d'Urgell</div><div>Catalunya</div>"
		style="fill:#cccccc;stroke:#000000;stroke-width:0.5;"
	/>
</svg>