<svg xmlns="http://www.w3.org/2000/svg" viewBox="402 62 75 50">
  <polygon
    id="alt_emporda"
    class="cat"
    points="461.8,74.1 460.5,73.7 461.4,72.6 460.9,71.9 461.9,70.1 461.3,69.2 462.2,68.1 456,68.3 455.5,69.1 455.5,69.5 454,69.7 453,68.6 452.6,68.4 450.4,66.2 449.3,63.5 448.5,63.6 446.8,64.6 444.5,63.5 443.6,64.5 442.4,64.9 440.4,62.9 438.7,64.3 438.2,65.9 437.5,66.3 434.2,65.6 433,64.9 432.5,65.5 432.3,66.7 430.2,66.2 429.6,66.9 429.5,68.1 428.9,68.9 428.1,68.7 427.2,69.9 427,69.7 426.3,71.5 425,71.7 424.4,72.3 423.8,72.6 422.5,71.1 419.2,71.2 416.2,73.4 415.2,73.4 414.3,74.1 414.3,76 413.8,76.2 412.6,75.9 413.5,77.7 413.5,78.1 413.9,79.1 414.7,79.4 414.9,81.7 411.5,81.7 410.9,81.3 408.8,81.4 406.6,80.5 406.6,80.1 405.5,80 403.6,80.6 402.3,83.4 404.4,85.1 405.8,84.6 406,84.2 407.1,83.9 409.1,85.1 409.3,85.8 410.9,86.1 410.8,87.8 413.4,87.7 414.5,90.8 414.2,91.8 415.3,92.3 416.6,91.8 415.8,90.8 416.7,90.6 418,90.9 418.3,91.4 417.9,93.2 419.4,93.3 419.9,93.9 420.4,93.3 420.5,91.8 424.6,93.3 424.5,94.9 425.5,96.2 425.1,97 426.1,99.7 428.2,99.4 428.9,99.6 431,99.5 430.9,100.8 430.3,101.8 431.1,102.3 432.2,102.1 433,101.3 433.3,99.5 435.1,100.2 434.9,101.6 436.4,102.2 436.8,103.7 437.1,104.2 436.2,105.4 436.8,105.9 436.8,106.5 437.4,107.1 437.9,110.9 445,110 446.6,108.9 446.7,107.5 447.2,106.9 448.4,107.5 448.7,108.1 450.8,109.1 451.2,110.4 452,110.4 453.1,109.6 454.6,109.3 456.1,108.2 457.5,109.7 457.6,111.1 459.3,110.5 459.9,111.6 462.4,110.4 463.9,110.4 463.7,109.3 462.7,109.5 461.5,108.9 461.2,109.3 460.2,109.3 460.3,108.2 459,108 457.5,97.1 459.8,91.8 461.5,90.4 462.8,90.2 463.4,90.7 463.8,91.6 463.5,92 464.2,92.4 465,92.3 465.4,93 466,92.8 467.6,94 467.9,93.1 468.4,92.9 468.3,91.8 469,92.1 469.4,91.7 470.1,92.6 471.3,93.2 471.6,92.5 470.8,91.8 470.9,91.3 471.7,91.4 472.1,91.2 473.1,91.2 473.9,89.3 473.7,88.8 473.3,88.5 472.9,87.6 472.9,86.9 473.3,86.7 473.9,87.4 474.5,87.4 474.6,86.3 473.9,86 474.1,85.4 473.7,84.8 474.1,84.3 475,84.7 475,83.9 476.5,83.1 476.3,82.4 474.2,81.3 473.5,81.6 473.3,80.9 471.1,79.9 470.8,81 470.2,81 469.5,80.5 469,80.5 468.7,78.9 467.7,78.5 467,79.1 466.4,79.1 466.1,79.5 465.6,79.7 465.1,80.8 463.9,80 463.8,78.5 462.9,78.6 462.6,78.1 461.8,77.8 461.6,76 461,76.2 460.8,75.4 461.8,74.1 "
    data-info="<div>Comarca: Alt Empordà</div><div>Capital: Figueres</div><div>Catalunya</div>"
    style="fill:#cccccc;stroke:#000000;stroke-width:0.5;"
  />
</svg>