<svg xmlns="http://www.w3.org/2000/svg" viewBox="260 196 49 37">
  <polygon
    id="alt_camp"
    class="cat"
    points="261.8,224 266.2,224.2 266.8,225.2 267.8,224.9 270.2,225.2 270.1,226 272,227.7 271.6,228.4 273.3,229.4 274.2,229.4 275,228.6 275.7,229.4 276.4,228.9 278,230.5 278.6,230.7 278.8,230.1 279.5,230.3 279.2,230.9 279.4,232 280.5,231.8 281.8,232.4 281.8,231.7 280.3,229.7 280.5,229.3 282,229.6 282.6,228.2 283.5,227.8 283.9,228.1 285.4,227.3 288.4,229.9 289.4,229.8 289.7,230.3 290.2,229.6 290.8,229.4 290.8,228.9 289.8,228.3 289.3,227.5 290.4,227.5 290.7,227.2 290.6,226.5 291.2,225.3 292.2,225.7 292.3,226.5 296.2,227.3 297.1,226.8 297.5,225.9 299,225.4 298.5,224.9 295.1,224 296.4,222.5 299.2,222.8 298.7,221.7 299,221.2 295.5,220.3 296.3,219.4 297,219.2 297.8,218.2 295.6,216.2 301.4,211.9 304.5,212 305.2,211.4 306.2,211.6 306.7,210.8 307.7,210.2 308.5,208 306.7,207.6 305.8,207 302.6,208.7 303.3,206.5 303.8,206.1 303.4,204.5 303,204.2 303.3,203.4 302.6,203.2 302.6,202.4 303.9,202.2 304.3,201.6 302.3,201.5 301.7,200.6 303.4,198.4 303.1,196.5 302.3,196.1 301.6,196.5 301.2,197.1 300.3,197.3 300.3,198.1 299.4,199.5 298.3,200.1 297.1,200.2 295.4,201.8 293.5,200.3 292.1,201.1 292.3,201.7 291.8,202.5 290.5,202.9 289.5,202.6 288,203 287.9,201.3 287.5,200.3 285.6,203 284.5,203.6 284.1,204.3 283.6,204.5 282.7,205.5 281.5,206.1 281.6,207.1 280.8,208.6 279.7,208.7 279.6,209.9 278.6,210.1 278.2,213.2 277.6,214.4 275.7,215.9 275,217.5 274.6,217.1 273.3,217.2 270.5,218.7 269.9,218.7 269.1,219.1 266.8,218.6 266.4,217.8 262.9,217.2 262.7,216.4 260.6,217.5 261.8,219 263,219.3 262.1,220.7 262.3,223.2 261.8,224 "
    data-info="<div>Comarca: Alt Camp</div><div>Capital: Valls</div><div>Catalunya</div>"
    style="fill:#cccccc;stroke:#000000;stroke-width:0.5;"
  />
</svg>