<svg xmlns="http://www.w3.org/2000/svg" viewBox="323 48 43 35">
	<polygon
		id="alta_cerdanya"
		class="nord"
		points="334.1,53.2 336.9,53.6 337.9,53.3 338,52.3 338.9,52.2 339.7,51.3 339.6,50.1 340.3,49.1 341.3,49.9 342.6,49.7 343.7,50.2 345,48.5 346.4,48.6 347.5,48.1 349.6,51.1 350.7,51.9 349.9,53.4 350.2,54.1 349.9,55 350,56 352.1,56.3 362.9,62.9 364,62.8 364.9,63.5 365.7,65.2 365.3,66.5 365.6,67.8 364.4,71.7 365.2,72.9 362.3,74.4 361.8,76 361.3,76.6 361.5,77.9 358.9,79.4 358.5,80.7 358.3,80.9 357.6,80.4 355.9,81.4 353,81.7 351.9,82.9 350.7,81.8 350.3,81.8 347.1,79 346,75.2 346.1,73.3 344.6,72.4 344.3,69.7 343.5,69.5 342.6,70.1 339.7,70.2 339.3,70.1 338.9,68.9 337.1,68 336.7,68.4 335.7,67.9 334.1,65.8 333.2,65.7 332.6,65.9 331.2,65 329.5,65.6 327.9,65.3 327.2,65.5 325.8,64.6 324.3,64.9 323.6,63.5 323.8,62.5 323.6,61.7 324.7,60 324.8,57.4 326,55.7 327.9,55.6 329.7,54.4 330.8,54.5 334.1,53.2 334.1,53.2 "
		data-info="<div>Comarca: Alta Cerdanya</div><div>Capital: Sallagosa</div><div>Catalunya Nord</div>"
		style="fill:#cccccc;stroke:#000000;stroke-width:0.5;"
	/>
</svg>