<svg xmlns="http://www.w3.org/2000/svg" viewBox="224 48 28 43">
  <polygon
    id="alta_ribagorca"
    class="cat"
    points="251.4,55.8 250.3,54.7 249.1,54.9 248.8,53.8 246.3,52.9 245.5,51.4 244.1,50.9 244.1,50.3 244.4,49.4 242.5,48.2 242.1,49 240.4,49.6 239.5,50.8 237.6,51.9 237.2,50.7 235.8,50 232.2,51.1 230.5,58.5 229.6,59.5 230.4,60.8 229.6,60.6 229,60.1 228,61.6 227.8,63.6 229.4,64.5 229,64.7 228.7,65.7 227.2,66.9 225.8,66.2 225.7,67.1 225.1,67.2 224.9,67.3 227.2,74.2 228.6,75.3 229.3,76.6 228.5,77.6 229.5,78.3 230.2,80.4 229.8,81.2 229.4,81.4 229.3,82 228.1,82.4 229.1,83.1 231.6,83.8 231.8,83 232.9,81.5 234.4,81.8 236.1,83.6 235.8,84.4 233,85.2 232.5,85.8 233.4,85.9 233,86.7 235.1,87.8 235.5,88.3 236.3,88.3 237.1,88.9 240.1,89.3 242.7,90.9 244,90.3 244.2,86.7 242.5,85.6 241.6,82.3 240.1,82.2 237.4,79 238.7,77.8 237.7,76.1 238.6,74.9 240.6,74.8 241.3,74.4 242.2,72.7 240.9,71.2 241.7,70.3 243,70.3 244.2,68.2 246.8,67.2 247.2,66.1 246.9,64.6 247.8,63 249,63 249.1,62 250.2,61.2 250.2,60.2 251.7,58.6 251.4,55.8 "
    data-info="<div>Comarca: Alta Ribagorça</div><div>Capital: El Pont de Suert</div><div>Catalunya</div>"
    style="fill:#cccccc;stroke:#000000;stroke-width:0.5;"
  />
</svg>