<svg xmlns="http://www.w3.org/2000/svg" viewBox="293, 44, 37, 30">
	<polygon
		id="andorra"
		class="andorra"
		points="299.1,47.5 299.9,46.2 300.1,44.7 301.3,44.4 302.2,45.4 304,45.4 304.5,44.4 305.5,44.6 306.9,44.1 309.5,45.4 309.8,46.5 311.8,47.9 312.8,47.6 314.4,47.7 315.3,47.5 317.5,48.6 319.7,47.9 322,49 324.6,48.8 324.6,49.6 323.8,50.7 323.9,52.6 325.2,52.5 326.9,53.4 329,53.3 329.7,54.4 327.9,55.6 326,55.7 324.8,57.4 324.7,60 323.6,61.7 323.8,62.5 323.6,63.5 321.8,65 320.3,64.6 319.3,64.8 318.3,63.7 317.1,68.4 315.7,68.2 314.7,68.8 313.8,68.5 312.9,68.7 311.7,68.4 311,68.8 310.1,70.6 308.5,69.7 307.6,70.1 307.9,70.9 307.2,72.8 304,73.5 297.2,72.4 297.2,71.6 296.8,70.9 297.1,69.5 296.5,68.8 296.7,67.6 294.6,66.4 295,65.6 296.7,65 299,62.9 297.7,61 297.5,59.5 296.5,58.7 293.9,60 294.7,57.3 296.4,56 296.4,55.5 295,54.2 295,53.3 295.8,52.7 296.4,51.2 297.9,51.2 299.1,50.6 299.9,49.6 299.1,47.5 "
		data-info="<div>Andorra</div><div>Capital: Andorra la Vella</div>"
		style="fill:#cccccc;stroke:#000000;stroke-width:0.5;"
	/>
</svg>