<svg xmlns="http://www.w3.org/2000/svg" viewBox="309 131 48 50">
  <path
    id="bages"
    class="cat"
    d="M323.5,141.7h0.7l0.2,0.4l0.4-0.5l0.6,0.6l-0.8,1.4l-0.2-0.6l-0.9-0.2V141.7L323.5,141.7z M355,153.2l0.7-0.7l-1-1.6l-0.7-0.3l-0.7,0.1l-0.7-1.4l-2.6-0.6l0-1.4l1.7-1.2l1.6-2.3l-1-0.7l0.8-0.2l0.3-1.6L353,140l0.1-0.7l2.6,0.9l0.5-0.4l-1-0.9l-1.1-3l-1.5-0.2l0.4-0.6l1.1-0.2l0.6-2.2l-1.6-0.7l-1.1,0l-0.6-0.4l-1,0l0.8,1.2l-1.4,0.6l-0.6,2.5l1.3,1.4l-0.2,0.6l-1.4,0l-1.6-5.9l-1.9,0.1l-3.6,3.2l-1,0.4l-0.3,1.4l0.2,0.7l-0.1,1.9l-2-1.2l-1.2,0.1l-0.5,0.6l0.2,1.6l-0.8-0.2v-0.8l-2.9-2.3l-0.8,0.7l-3.3,0.7l-1.1-0.9l-0.3,0.6l-2-0.1l0.4-0.8l-1.4-0.7l-0.6-1.5l-2.7,0.7l-1.1-0.4l0.1-0.7l-0.9-1.6l-1.1-0.3l-0.8,0.6l-0.4,0.6l0.4,0.9l-0.6,0.5l1,1.8h-1.3l-2.4,3l-1.3,0.2l-1.3,2l-0.1-0.6l-0.8,0.4l-0.7,1.2l1.4,0.9l1.6-1.4l1.8,0.5l1.2,2.8l-0.4,1l0.4,0.4l-0.5,0.9l-1.3,0.5l0.4,0.7l-0.4,1.6l-1.6,1l-0.3,0.9l1,1.9l-0.7,1v0.6l-1,0.2l1,0.7l0.2,0.6l-0.8,3.7l0.4,0.8h1l0.8,1.5l-0.9,0l-0.6-0.4l-0.9-0.1l-1.2,0.3l-1.7,1.4l1.2,0.2l0.7,0.8l1.5,0.6l1.2-0.3l0.4,0.8l1.2-0.6l0.8,0.8l-0.3,1.3l0.9,0.2l-0.5,0.7l0.7,0.6l-0.4,0.7l1.2,2.4l0.4-0.1l-0.1-1.2l1.5-0.2l0.8,0.9l-0.3,1l1.9,2.8l1.1-0.4l0.8,0.4l2.5-3.6l3.4-0.2l0.8-0.7l0.7-0.2l0.1,1.5l0.9,0.3l-0.1,3.5l4.7,2.7l2.6-0.1l0.2-3.4l0.8,0.7l1.3-0.4l0.7-0.6l-0.6-3.7l1.5-1.8l1.4-0.5l1,0.9l0.3-0.7l0.8,0.6l0.1,1l0.8,0.6l1.2,0.1l1-0.4l1.1,0l0.7-0.8l1.3-0.2l0.6-0.8l-0.5-1.9l0.6-0.6l-0.2-1.3l0.8-0.4l0.3-1.6l-0.9-3.2l-0.8,0.4l-0.1-1.6l-2.3-1.6l-4,1.3l-0.9-0.1l-1.3-1.8l0.1-1.5L343,157L355,153.2"
    data-comarca="Bages"
    data-capital="Manresa"
    data-pais="Catalunya"
    style="fill:#cccccc;stroke:#000000;stroke-width:0.5;"
  />
</svg>