<svg xmlns="http://www.w3.org/2000/svg" viewBox="294 208 27 28">
  <path
    id="baix_penedes"
    class="cat"
    d="M317.7,217.5l0.4-0.4l0.9-0.1l0.1,0.5l-0.9,0.4L317.7,217.5L317.7,217.5z M296.2,216.9l1.6,1.3l-0.7,1l-0.8,0.2l-0.8,0.9l3.4,0.9l-0.2,0.6l0.5,1l-2.8-0.3l-1.3,1.5l3.4,0.9l0.4,0.5l-1.5,0.5l-0.4,0.9l-0.9,0.5l-0.2,1.6l-0.5,0.5l-0.8,0.1l0.6,2l1.1-0.9l1.8,0.1l1.1,1.1l3.7-0.9l1.1,3.3l1.1,1.3l2.8-0.7l0.6-0.6l7.5-0.9l0.7-0.5l2.9-0.1l-0.6-1v-1.2l0.4-0.1l0.6,0.6l0.5-0.2l-1.1-1.5l0.1-1.2l-0.4-0.8l-0.9,0.4l-0.4,1l-0.5,0.1l-2.1-1.6l-0.6,0.2l-1-0.2l-0.8-1.7l0-0.8l-0.4-0.7l2,0.3l0.5,0.6l1.2,0.3l1.2-0.8l0.1-0.8l0.6-1l-0.6-0.7l1-2.5l-0.4-0.4l-1.2,0.7l-0.4,1l-2.4-1.2l0.5-1.9l-2-0.7l0-0.8l-1.4-2.7l1-1.3l0.7-0.2l-0.3-1l-1.2-0.8l-0.6,0.2l-0.6-0.3l-1.4-1.9l-0.9,2.1l-0.9,0.6l-0.6,0.8l-0.9-0.1l-0.8,0.6l-3.1-0.1l-5.8,4.2L296.2,216.9L296.2,216.9z"
    data-comarca="Baix Penedès"
    data-capital="El Vendrell"
    data-pais="Catalunya"
    style="fill:#cccccc;stroke:#000000;stroke-width:0.5;"
  />
</svg>