<svg xmlns="http://www.w3.org/2000/svg" viewBox="182 257 64 42">
  <polygon
    id="baix_ebre"
    class="cat"
    points="188.1,291.5 188.7,291.5 190.1,292.1 190.9,291.5 191.6,291.5 191.8,290.1 193,290.5 196.9,290 199.8,292.6 209,292.8 210.9,291.9 211.6,292 211.9,291.7 212.5,292 213.5,292.1 214.6,291.2 216.1,295.6 219.6,297.1 225.5,295 226.1,295.5 232.9,296.4 235.9,298.1 237.6,298.2 243.8,295.1 245.9,295 245.1,293 244.8,293.5 244.3,293.5 243.9,292.9 241.6,293.6 241.1,293.4 234.4,285.7 231.7,285.7 231.1,285.9 230.9,286.4 231.5,286.7 232.3,286.6 236.1,288.2 234.8,289.4 234.2,289.6 230.8,288.5 227.8,284.7 228.1,284.1 228.8,283.3 229,283.6 229.2,283.1 229.8,282.9 230.2,282.6 231,282.4 231.2,281.9 231.8,281.8 232.1,281.4 232,280.8 233,278.7 234,278.6 234.8,277.2 235.7,276.9 238.4,273.3 239.3,272.8 239.5,272.1 240.1,271.5 240.2,270.9 241.1,270 241.2,269.3 242.6,268 243,267.2 241.1,266.7 232.7,267.7 231.6,266.8 226.8,266.3 226.3,266.6 225.3,265.9 224.5,266.3 223.2,266.2 219.1,267.8 218.2,267.3 218.2,266.7 216.9,266.6 217.1,265.1 216.4,264.7 216.5,263.7 216,263.1 216.1,262.2 215.5,262 214.5,261.1 214.7,260.3 215.5,259.7 214.9,259.3 215,258.9 214.4,258.2 213.9,258.1 213.7,257.2 210.3,259.5 209.2,259.7 208.6,260.5 207.9,260.8 206.4,262.4 205.5,262 204.9,262.2 203.7,262.1 202.9,263.7 201.9,264.3 199.7,264.5 198.4,265.3 197.4,265.4 196.7,266.5 195.7,266.5 195.7,267.4 195.1,268.2 194.9,272.5 195.4,273.4 194.8,274.3 194.6,274.9 191.5,279.3 189.8,279.9 188,282.9 186,282.7 185.5,283.1 184.7,285.1 183.8,285.3 183.3,286.1 182.3,286.7 182.4,288.1 182.8,287.6 184.1,287.3 186.1,287.7 186.7,288.7 186.1,289 186.6,289.9 187.5,289.3 188.1,291.5 "
    data-comarca="Baix Ebre"
    data-capital="Tortosa"
    data-pais="Catalunya"
    style="fill:#cccccc;stroke:#000000;stroke-width:0.5;"
  />
</svg>