<svg xmlns="http://www.w3.org/2000/svg" viewBox="437 106 34 51">
  <polygon
    id="baix_emporda"
    class="cat"
    points="468,116.3 467.6,117.2 466.6,117.3 467.1,125.5 467.8,126.4 468,127.4 469.3,127.4 469.8,127.9 469.8,128.6 470.4,129 470,129.5 470.1,130.3 468.9,131.3 468.9,131.9 468.6,132.2 469.1,132.5 468.8,133 469.1,133.5 468.8,134.2 468.1,134.6 468.4,135.8 468,136 468.2,136.8 467.7,137.1 467.5,138.2 467.1,137.6 466.3,138.7 465.6,138.8 465.6,139.4 465.4,139.9 465.6,140.4 465,141.5 464,142 463.3,141.9 462.7,142.4 462.2,142.5 462.3,143.5 461.8,144.1 461.2,144.1 461.1,144.6 460,144.9 460.2,144 458.5,144.4 457.8,145 457.4,145.9 455.3,148 454.4,151.1 454.1,151.5 454,152.1 453.3,151.7 453.1,152.3 453.2,152.8 452.6,153.3 451.4,153.1 451.9,154.1 451.6,154.2 451,153.9 450.5,153.9 449.6,154.3 448.4,155.5 446.8,156 446.1,156.8 445.5,156.5 444,154.8 444.9,154 444.4,152.6 443.4,152.1 441.8,147.6 442.8,147.3 445.1,147.4 445.6,146.9 444.2,143.4 442.8,142.3 442.9,141.5 444,139.9 438.9,137.6 438.1,137.8 437,136.9 438.7,135.7 438.2,133.9 440,133.9 440.3,133.3 442.8,132.9 442.8,131.8 442.9,131.6 442.7,129.3 443,128.4 444.4,128.2 445.4,127.6 445.5,127.2 446.4,126.4 445.8,125.3 445.1,124.7 443.5,125 442.9,124.2 443.4,121.3 442.9,120.9 444.1,120.1 444.5,120.4 445.5,120.2 445.1,117.8 444.7,117 445.2,115.4 444.8,115.3 443.2,112.4 442.6,112.7 442.8,110.5 445,110 446.6,108.9 446.7,107.5 447.2,106.9 448.4,107.5 448.7,108.1 450.8,109.1 451.2,110.4 452,110.4 453.1,109.6 454.6,109.3 456.1,108.2 457.5,109.7 457.6,111.1 459.3,110.5 459.9,111.6 462.4,110.4 463.9,110.4 463.5,110.9 463.8,111.3 464.6,110.7 465.8,112.7 465.8,113.3 466.5,113.5 466.4,114.1 467.5,115.1 467.7,116.2 468,116.3 "
    data-comarca="Baix Empordà"
    data-capital="La Bisbal d'Empordà"
    data-pais="Catalunya"
    style="fill:#cccccc;stroke:#000000;stroke-width:0.5;"
  />
</svg>