<svg xmlns="http://www.w3.org/2000/svg" viewBox="158 293 53 69">
  <polygon
    id="baix_maestrat"
    class="pv"
    points="167.2,323.1 169,318.1 168.5,317.5 167.6,317.3 167.7,316.1 166.9,315.3 166.9,314.3 169.2,312.7 170.5,312.6 173.5,314 175.4,313.5 177.6,311.2 176.1,309.2 174.8,308.9 174.8,307.8 173,306.2 170.3,306 168,304.4 160.8,304.5 161.3,304.2 161.1,303.5 160,302.5 159.7,301.2 159.1,301 159.3,300.2 158.3,299.4 158.3,298.8 159.6,298.7 160.3,298.4 163.4,299 166.6,296 170.1,294.4 172.8,295.5 175.1,294.9 176,293.9 177.6,294.6 178.2,294 178.6,295 179.5,294.7 179.7,294.3 180.7,293.9 181.6,293.9 181.5,295 182.5,297.9 183.1,298.1 184.6,297.2 185,297.2 186,297.7 186.6,298.9 187.8,299.4 188,300 187.1,301.6 186.3,301.8 185.8,303.3 185.9,304.7 185.7,304.9 185.9,305.8 186.3,306.2 186.5,306.2 186.9,307.4 187.9,307.9 188.1,307.9 188.5,307.7 188.7,307.7 188.9,308 193.4,310 197.4,310 198.8,310.6 199.4,311.7 201.8,313.5 202.9,313.5 202.9,313.7 202.4,314.5 202.5,317.5 210.1,320.7 198.8,340.8 199.1,341.7 199,342.2 198.6,342.2 193.4,350 192.5,350.5 192.1,351.7 189.3,354.7 188,355.3 185.4,361 184.5,361.9 181.7,359 179.3,357.9 177.8,358 175.9,359.8 174.9,359.7 174.3,359.4 176.5,354.8 176.6,352.6 176.2,351.6 176.3,350.7 177,350.1 177,348.9 175.8,346.8 175.8,345.5 176.9,344 175.6,341.9 175.7,340 174.2,339 173.1,339 171,337.1 170.3,335.3 169.5,334.4 169,334.3 169,333.8 169.8,332.6 170.4,330.3 168.8,329.7 168.2,327.8 168.3,326.3 167.2,323.1 167.2,323.1 "
    data-info="<div>Comarca: Baix Maestrat</div><div>Capital: Vinaròs</div><div>País Valencià</div>"
    style="fill:#cccccc;stroke:#000000;stroke-width:0.5;"
  />
</svg>