<svg xmlns="http://www.w3.org/2000/svg" viewBox="68 601 40 41">
  <polygon
    id="baix_vinalopo"
    class="pv"
    points="71.2,615.2 68.4,611.4 71.5,609.1 77.6,608 78.5,608.3 94.3,601.3 96.9,602 101.2,606.8 102.6,606.9 103.8,606.5 104.5,606.8 105.8,610.2 106.6,610.5 107.1,620.1 104.3,621.9 103.7,621.3 98.1,621.7 94.2,629.3 92.9,641.9 91.5,641.3 90.5,639.8 88.6,639.5 88.5,630.7 89.5,630.6 91.5,631.4 92.7,631.3 92,627.3 86.5,628.1 79.3,622.9 76.2,625.2 74.8,625.5 74,625.1 75.8,624.3 74.6,619.9 71.2,615.2 71.2,615.2 "
    data-comarca="Baix Vinalopó"
    data-capital="Elx"
    data-pais="País Valencià"
    style="fill:#cccccc;stroke:#000000;stroke-width:0.5;"
  />
</svg>