<svg xmlns="http://www.w3.org/2000/svg" viewBox="235, 213, 41, 55">
	<polygon
		id="baix_camp"
		class="cat"
		points="250.9,258.2 256.3,253 256.7,253.2 256.9,252.9 257.5,252.9 258.1,252.1 259.2,251.8 259.8,251.3 260.7,251 261.7,250.1 262.1,250.4 262.4,250.3 262.8,250.6 262.9,250.1 263.3,250.3 263.9,250.1 264.9,250.2 268.4,249.2 268.1,248.6 267.1,247.8 266.1,245.9 266,244.6 266.8,243.8 268.9,245.3 269.3,244.5 268.8,242.8 268.4,242.6 268.8,241.6 271.7,242.7 272.9,244.2 273.9,244.2 273.3,243.3 273.8,242.5 272.9,241.3 273.1,240.5 273.7,240.6 273.8,241.4 275.3,241.7 275.7,241.3 274.3,240.5 273.9,239.6 272.5,238.8 270.9,236.4 271.5,235.9 271.8,235.3 272.3,235 273.8,232.7 274.2,231.2 273.9,230.8 274.2,230.1 271.6,228.4 272,227.7 270.1,226 270.2,225.2 267.8,224.9 266.8,225.2 266.2,224.2 261.8,224 262.3,223.2 262.1,220.7 263,219.3 261.8,219 260.6,217.5 262.7,216.4 261.2,216.7 259.8,216.2 259,216.4 258.4,215.6 257.8,216.1 256.7,216.5 257,213.9 255.8,213.2 254.7,214.6 254.4,216 252.3,217.4 250.2,217.5 251.1,219.4 250.7,220.3 251.3,221.3 252.6,220.1 254,220.6 253.6,221.4 253.6,223.3 254.1,225 253.5,225 251.1,227.2 248.8,227.7 248,228.3 249,232.5 248.3,233.3 244.9,233.8 245,235.2 247.4,235.8 247.2,236.3 247.4,237.5 245.5,243.7 244.6,244.4 242.2,244.4 240.7,243.1 240.1,243.2 240.1,243.8 240.9,244.2 241.9,246.6 244.6,247.6 244.3,249.2 243.8,248.8 243.8,247.9 243.2,247.9 242.3,248.5 242.6,248.9 242.8,250.9 242.4,251.4 240.9,252.1 239.6,251.4 239.2,250.9 238.6,251.2 235.8,255.3 236.1,256.9 235.2,259.6 238.1,265.2 239.1,266 239.3,266.6 243,267.2 243.7,265.6 244.9,265.1 247,262.1 247.7,261.8 248.8,260.3 250.3,259.9 250.9,258.2 "
		data-info="<div>Comarca: Baix Camp</div><div>Capital: Reus</div><div>Catalunya</div>"
		style="fill:#cccccc;stroke:#000000;stroke-width:0.5;"
	/>
</svg>