<svg xmlns="http://www.w3.org/2000/svg" viewBox="333, 179, 36, 44">
	<polygon
		id="baix_llobregat"
		class="cat"
		points="335.2,185.7 335.8,187.1 336,187.2 336,187.6 338.9,190.2 338.9,191.5 337.8,191.7 337.4,192.7 340.6,195.5 340.9,197.6 343.3,201.3 342.5,202.4 342.6,202.7 341.9,203.9 342.2,204.5 341.5,204.9 341.4,205.7 341.6,206.6 340.7,207.3 340.9,208 342.7,209.1 342.9,210.2 343.7,211.2 342,212.7 341.1,212.8 341.1,213.3 340,214.2 338.9,216 338.9,217.1 339.4,218.5 341.5,219.1 341.1,220.9 342.7,221 342.7,220.6 344.2,221 344.6,220.4 345,220.5 345.7,219.5 346.4,219.3 348.3,220.8 347.9,221.2 348,221.9 348.5,222.9 365.3,218.8 365.7,218.2 366.3,218 367,218.1 366.6,217.6 367,217.6 367.4,217.2 367,217 367.6,215.6 368.2,215.9 368.2,215.7 367.8,215.4 368,215.1 364.4,214.2 362.6,212.6 362.8,212.4 362.2,211.8 363.3,211 361.9,209.1 362.1,208.9 362.7,209.1 363.2,208.9 363.6,207.5 363.4,207.2 363.4,206.6 362.9,205.6 363.5,204.8 363,203.7 361.5,203.8 361,204.6 360.4,204.2 360.3,203.6 361.1,203.2 361.1,203 360.6,202.9 360.1,203.4 360.1,203 360.5,202.8 360.3,202.5 359.2,203.2 359,203.7 358.7,203.2 359,202.9 358.5,201.9 358.9,201.7 358.9,200.6 359.1,200.6 359.4,199.4 357.6,199.3 356.5,199.7 356.3,199.1 355.7,198.6 355.5,198 354.6,197.5 353.2,197.5 352.7,200.3 350.3,197.1 349.7,197.5 348.5,196.9 348.5,196 348,196.6 347,195.6 346.7,194.5 346,194 345.5,193.2 345.9,193 347.1,191.2 348.3,190.8 348.3,189 347.4,188.8 346.9,188.3 345.2,185.1 345.4,184.6 345,183.2 344,183.2 341.7,182.4 342.2,181.9 340.7,180.9 340.1,181.1 339.4,180.8 336.8,181 334.6,179.3 334,183.6 333.3,184.2 333.1,184.8 334.1,185.5 335.2,185.7 "
		data-info="<div>Comarca: Baix Llobregat</div><div>Capital: Sant Feliu de Llobregat</div><div>Catalunya</div>"
		style="fill:#cccccc;stroke:#000000;stroke-width:0.5;"
	/>
</svg>