<svg xmlns="http://www.w3.org/2000/svg" viewBox="358 192 22 24">
  <path
    id="barcelones"
    class="cat"
    d="M359.5,201.1l0.4,0.2l0.5,1.2l-1.1,0.7l-0.2,0.4l-0.3-0.4l0.3-0.4l-0.4-1l0.4-0.2l-0.1-1.1h0.2L359.5,201.1L359.5,201.1z M360.1,203l0,0.4l0.5-0.5l-0.1-0.1L360.1,203L360.1,203z M360.3,203.6l0,0.6l0.6,0.4l0.6-0.8l1.5-0.1l0.4,1.1l-0.6,0.8l0.4,1l0,0.6l0.2,0.4l-0.3,1.4l-0.6,0.2l-0.6-0.2l-0.2,0.2l1.4,1.9l-1.1,0.8l0.6,0.5l-0.2,0.2l1.8,1.7l3.6,0.8l0.5-0.2l0.2-0.8l0.6,0l0.5-1.8l-0.2-0.2l-0.6,0.1l-0.6,1.5l-0.4,0l0.1-0.4l-0.3-0.1l0.2-0.2l0.4,0l0.1-1.4l0.2,0.5l0.7-0.5l-0.2-0.2l0.3-0.4l0.6,0.4l0.5-1l-0.5-0.3l0.2-0.4l0.5,0.3l0.2-0.3l-0.5-0.2l0.1-0.3l0.5,0.2l0.3-0.3l-0.5-0.2l0-0.5l0.5,0.2l0-0.2l-0.2-0.2l0.4-0.8l0.3,0.1v0.6l-0.1,0.1l0,0.7l0.1,0l-1.2,2.3l-0.1,1.5l1.2-3l0.3,0l0.2-1l-0.2-0.2l0.9-2.1l0.4,0.1l-0.1,0.3l0.3-0.3l-0.2-0.3l1.3-1.6l0.1-0.2l0.7-0.6l0-0.2l0.1,0.1l0.3-0.7l-0.2-0.2l0.2-0.3l0.3,0.2l-0.1,0.5l0.3-0.5l-0.2-0.4l1.1-2.4l0.1,0.4l0.1-0.8l0.2,0l0.1-0.6l2.1-2.2l-2.4-3.6l-2.1-0.3l-0.9,0.6l-0.2,0.8l0.4,0.8l-0.6,0.6l-0.8,0l-0.4-0.4l-1.1,0.8l-0.8,0.1l-0.4,0.6l-0.7,0.4l-0.4,1l-1.1,0.8l-1.7,0.1l-0.4,0.4l-0.4,1.6l-0.9,0.7l-2-0.9l-0.7,0.6l-1.8-0.8l0.4,0.8l-0.2,0.4l0.5,0.3l-0.1,0.9l0.2,0.4l0,0.2L360.3,203.6L360.3,203.6z"
    data-comarca="Barcelonès"
    data-capital="Barcelona"
    data-pais="Catalunya"
    style="fill:#cccccc;stroke:#000000;stroke-width:0.5;"
  />
</svg>