<svg xmlns="http://www.w3.org/2000/svg" viewBox="313 86 45 56">
  <path
    id="bergueda"
    class="cat"
    d="M352.6,111.5l-1.4,0.3l0.4,1.7l0.4,0.5l0.9-0.5v-1.3l1-0.7l-0.4-0.5l-0.6-0.2L352.6,111.5L352.6,111.5z M324.6,105.8l0,0.9l-1,0.2l-0.8,0.6l-0.4-0.7l-2-1l-0.4,0.8l-1-0.3l0,0.9l-0.6,0.1l-1.1-0.7l0.4-0.2l-1.4-2.6l0-0.6l-2.8-0.4l-0.2-1.7l2.5-4.3l4.2-1.3l0-0.4l1.1-0.6l-0.6-1.5l-1.6-0.5l0.4-0.6l3.4-0.4l0.6,0.5l1.7,0l0.5-1l5.4-0.6l0.9-1l1.1,0.3l6.7-2.3l0.4-0.6l1.1-0.2l1.6,0.7l1.5,0l0.4,1.1l1.4-0.6l2.4,1.6l1.1,0l0.9-0.8l2.1-0.3l4.3,2.1L357,91l-1.3,0.8l-2.2,3.5l-0.1,1.9l-0.8,0.9l1,1.7l2.4-0.5l-0.3,1.2l0.2,1.9l1.2,0.3l-0.3,0.7l-0.1,1.4l-1.8,0.3l-0.6-0.4l-0.6,1.1l-1.1,0.8l-1.2-0.3l-0.6-1l0.4-1.1l-0.4-1.1l0.8-0.3l-4-0.4l0.3,2.5l2.2-0.3l-0.1,0.9l1.5,2.5l0,0.5l2-0.3l1,0.3l0.4,0.8l0.9-0.1l2.1,1.5v0.6l-0.9,0.8l-1,0.2l0.4,1.6l-0.6,0.5l1.4,0.7l-0.3,1.5l-0.5-0.9l-1.2,0.6l0.3,1l-0.9,0.5l-0.8-2.2l-1,0.1l-0.7,1.3l-0.2,5.5l-0.6,0.8l0.2,0.8l2,0.1l0,0.4l-1.4,4.1l-0.7,0.8l0.1,1.6l-1,1l0.8,1.2l-1.4,0.6l-0.6,2.5l1.3,1.4l-0.2,0.6l-1.4,0l-1.6-5.9l-1.9,0.1l-3.6,3.2l-1,0.4l-0.3,1.4l0.2,0.7l-0.1,1.9l-2-1.2l-1.2,0.1l-0.5,0.6l0.2,1.6l-0.8-0.2v-0.8l-2.9-2.3l-0.8,0.7l-3.3,0.7l-1.1-0.9l-0.3,0.6l-2-0.1l0.4-0.8l-1.4-0.7l-0.6-1.5l-2.7,0.7l-1.1-0.4l0.1-0.7l-0.9-1.6l-1.1-0.3l-0.8,0.6l-0.2-1.2l0.5-1.7l0.6,0l0.7-0.8l0.9,0.5l-0.3,1.5l1.3,0.1l3.3-2.3l-0.4-2l-0.8-0.3l0-0.4l-0.9-1.1l-0.6,1.2l0.8,1.8l-0.6,0.7l-1.1-0.9l-1.8,0.1l0.4-1.6l-0.4-0.5l-1,2l-0.5-0.8l0.5-2.2l0.7-0.8v1.4l1-0.4l1.4-1.5h0.9l-0.2-0.9l0.1-0.5l-0.4-0.9l-0.7-0.5l-0.6,1.3l-0.6-0.4l0.3-2.3l1.3-2.1l0.2-1.6l1.7,0.5l1.3-1l0-1.1l-1.6-0.6l0.4-0.5l0.2-1.4l-1.4-1.1l0-0.6l1.4-2.8l0.8,0.4l1.5-1.5l-0.2-1.2l0.2-0.8l-0.7-0.5L324.6,105.8L324.6,105.8z M317.1,114l4.5,0l-0.3,0.6v0.4l-2.7-0.1L317.1,114L317.1,114z"
    data-comarca="Berguedà"
    data-capital="Berga"
    data-pais="Catalunya"
    style="fill:#cccccc;stroke:#000000;stroke-width:0.5;"
  />
</svg>