<svg xmlns="http://www.w3.org/2000/svg" viewBox="80 414 43 43">
  <polygon
    id="camp_de_turia"
    class="pv"
    points="86.5,415.9 100.9,421.4 103.8,415 106.5,414.5 113.5,424.7 118.6,424.4 120.6,427.8 119.6,430.3 120.3,431.5 120.2,433.7 122.6,439.5 119.8,440.6 119,441.5 118.4,443.2 117,444.4 115.4,444.4 115.3,445 114.3,446.5 111.3,444.3 111.8,445.5 111.6,446.5 110.1,446.8 108.7,445.8 107.7,446.9 107.5,448.7 107.8,449.5 106.5,451.8 106.6,455 106.2,456.3 100.6,455.7 100.1,455.3 100.4,454.2 98.8,450.8 98.8,450 86.9,446.3 87.6,444.1 89.5,441.7 90.4,439 90.8,438.6 91,437.3 91.5,436.7 90,434 88.6,432.8 80.8,431.6 80,421.4 85.4,416.3 86.5,415.9 "
    data-info="<div>Comarca: Camp de Túria</div><div>Capital: Llíria</div><div>País Valencià</div>"
    style="fill:#cccccc;stroke:#000000;stroke-width:0.5;"
  />
</svg>