<svg xmlns="http://www.w3.org/2000/svg" viewBox="347 41 20 21">
	<polygon
		id="capcir"
		class="nord"
		points="348.4,45.7 349.6,42.7 351.9,43.7 353.3,43.3 354.2,42.3 355.4,42.4 356,42 359.6,42.2 361.8,41.1 363.4,42.2 365.3,42 366.5,43.6 364,47.5 363.8,49.2 362.9,50.1 363.1,53.5 362.3,54.5 361.9,55.9 364.1,59.5 361.7,61.7 352.1,56.3 350,56 349.9,55 350.2,54.1 349.9,53.4 350.7,51.9 349.6,51.1 347.5,48.1 347.5,47.1 348.4,45.7 348.4,45.7 "
		data-info="<div>Comarca: Capcir</div><div>Capital: Formiguera</div><div>Catalunya Nord</div>"
		style="fill:#cccccc;stroke:#000000;stroke-width:0.5;"
	/>
</svg>