<svg xmlns="http://www.w3.org/2000/svg" viewBox="32, 573, 27, 35">
	<polygon
		id="carxe"
		class="murcia"
		points="55.5,577.9 57,573.1 45.6,574 45.4,574.5 51.7,576.5 46.3,581.4 46.8,582 45.8,584.7 44.2,585.5 43.8,587 41.2,588.7 38.8,588.8 36.5,590 34.8,589.4 32.8,591.3 32.8,592.3 36.8,598.1 32.1,603.6 33.8,605.6 35.5,606.2 37.5,607.9 39.5,606.8 40.4,606.7 43.4,604.6 44,606.7 49.1,605 52.7,606.3 53.3,606 54.3,606.6 57.6,604.4 58.9,604.1 49.1,600.7 49.1,590.2 49.8,589.6 48.5,588.8 56.6,581.4 55.5,577.9 55.5,577.9 "
		data-info="<div>Comarca: Carxe</div><div>Capital: Raspai</div><div>Múrcia</div>"
		style="fill:#cccccc;stroke:#000000;stroke-width:0.5;"
	/>
</svg>