<svg xmlns="http://www.w3.org/2000/svg" viewBox="98, 532, 41, 32">
	<polygon
		id="comtat"
		class="pv"
		points="112.2,553.6 109.4,551.4 109.2,550.6 108.1,550.2 108.1,548.7 107,548.4 105.7,547.2 102.5,548.6 100.1,546.4 98.9,543.9 105.7,541.4 111.2,542.4 118.2,538.5 118.6,537.9 121.1,538.1 123.2,536.5 124,535 126.8,534.6 128.1,532.6 129.3,532.4 133,535.2 131.3,537.7 128.1,540 129.1,540.3 130.4,542.2 130.5,545.1 129.9,546.5 130.4,547.6 133,546.2 139,546.8 136.1,548.3 135.2,549.3 137,551.9 136.5,554.1 133.4,553.4 131.1,554 128.3,556.1 128.1,557.5 128.5,558.4 127.6,559.2 128.1,563 127.1,563.3 126.1,562.6 125.8,562 123.7,562.1 123.5,560.8 124.5,559 124.4,557.6 123.4,557.5 122.7,554.7 121.4,554.2 120.9,555 121.5,555.8 120.2,556.9 115.1,557.1 114,555 113.9,554.2 112.2,553.6 112.2,553.6 "
		data-info="<div>Comarca: Comtat</div><div>Capital: Cocentaina</div><div>País Valencià</div>"
		style="fill:#cccccc;stroke:#000000;stroke-width:0.5;"
	/>
</svg>