<svg xmlns="http://www.w3.org/2000/svg" viewBox="247 182 56 38">
  <polygon
    id="conca_de_barbera"
    class="cat"
    points="255.8,213.2 257,213.9 256.7,216.5 257.8,216.1 258.4,215.6 259,216.4 259.8,216.2 261.2,216.7 262.7,216.4 262.9,217.2 266.4,217.8 266.8,218.6 269.1,219.1 269.9,218.7 270.5,218.7 273.3,217.2 274.6,217.1 275,217.5 275.7,215.9 277.6,214.4 278.2,213.2 278.6,210.1 279.6,209.9 279.7,208.7 280.8,208.6 281.6,207.1 281.5,206.1 282.7,205.5 283.6,204.5 284.1,204.3 284.5,203.6 285.6,203 287.5,200.3 287.9,201.3 288,203 289.5,202.6 290.5,202.9 291.8,202.5 292.3,201.7 292.1,201.1 293.5,200.3 295.4,201.8 297.1,200.2 298.3,200.1 299.4,199.5 300.3,198.1 300.3,197.3 301.2,197.1 301.6,196.5 302.3,196.1 302.1,195.2 301.3,195.2 300.8,194.8 300,194.8 298.9,193.8 297.3,193.5 297.1,193.2 296.5,193.2 295.3,192.7 295.1,192 294.7,191.7 295.3,189.1 297.5,189.4 298.4,188.4 299.4,188.7 299.3,186.7 298.1,186.9 297.7,186.3 299.8,184.4 296.9,182.8 295.9,183.1 295.4,183.7 294,183.7 294.3,184.9 295,185.2 295.1,186 293.3,186.2 292.7,185.5 286.3,184.8 285.6,184.4 284.4,185.2 282.3,184.4 281.1,185 280.8,184.5 280.1,184.5 279.6,185 278.4,184.7 277.3,185 276.3,187.7 272.5,188.6 273.1,189.3 272.1,189.7 272.8,190.1 272.6,191.6 272.2,191.6 272.4,193 273.3,193.6 273.5,195.4 272.7,195.4 271.2,196.4 268.8,196.9 268.6,197.4 266.6,198.2 266.2,197.2 259.6,193.5 259.7,194.4 260.9,195.7 259.8,196.7 261.7,198.6 262.9,198.8 263.4,199.4 262.3,200.1 261.9,201.3 260.7,201.8 259.9,204.2 259.4,204.4 258.9,205.8 258,206.5 256.7,206.5 256.7,207 255.8,207.8 255.7,208.4 254.7,208.1 253.4,210.8 252.7,211.4 253.1,212.4 251.8,213.4 247.2,213.9 247.5,216.6 252.3,217.4 254.4,216 254.7,214.6 255.8,213.2 "
    data-info="<div>Comarca: Conca de Barberà</div><div>Capital: Montblanc</div><div>Catalunya</div>"
    style="fill:#cccccc;stroke:#000000;stroke-width:0.5;"
  />
</svg>