<svg xmlns="http://www.w3.org/2000/svg" viewBox="279 500 47 41">
  <path
    id="eivissa"
    class="balears"
    d="M300.4,538.6l0.6,0.4l0.3,0.5l0.5,0.2l-0.4,0.4l-0.3-0.5l-0.4,0.3L300.4,538.6L300.4,538.6L300.4,538.6z M301.1,537.5l-0.1-6.9l1.4-2.2l1.5-0.1l0.7-1.3l0.8,0.2l0.8,1l-0.3-1.6l1.7,0.4l3.5-2.9l0.5-1.5l1.1,0.4l0.7-0.3l-0.1-0.6l-0.6-0.4l1-0.8l0.3-3.5l0.8,0.4l0.8-0.8l2.9-0.1l0.1-2.2l0.3-0.7l1-0.4l0.2-1l0.8-0.3l0.2-0.5l0.6,0.4l0.8-0.1l-0.4-0.4l0.5-0.5l-0.4-0.4l-1,0l-0.1-0.9l-1.7-1.6l-0.4-1.5l0.6-0.7l0.6,0.1l1-0.8l-0.7,0l-0.5-0.7l0.5-0.8l-0.8-0.5l-0.2-0.4l-0.8,0.5l-1-0.5l-1.7,0.6l-2-1.8l0.4-1l-1.1-0.4l-1.5,0.6l-0.2,0.6l-0.6-0.3l-0.1,0.5l0.2,0.4L310,503l-0.7,0l-0.2-1.2l-0.5,0l-0.2,1.3l-0.7-0.8l-0.9,0.8l-0.6-0.3l-0.3,0.6l-0.6,0.1l-0.3,0.7l-0.9,0.9l-1.4-1l-1,0.4l-0.3,1.3l-0.9,0.4l-1.1-0.6l-0.9,0.4l-0.6,1.7l-1.3,0.2l-0.5-1.5l-0.8,1.1l-0.7,0.3l-0.3,1.3l-1.4,0.1l-0.7,1l-1,0.3l-2.1,2l0.4,1.5l-0.2,0.4l0.3,0.7l-1.1,1.8l0.5,1l0.9,0.6l-0.1,0.6l0.6-0.3l0.3,0.3l0,0.4l-0.4,0.6l-0.7,0.1l-0.3-0.3l-0.7-0.3l-1.9,0.8l-0.5-0.3l-0.6,0.3l-1,0l-0.5-0.5l-0.8,0.3l-0.3-0.5l-1.3,1.9l0,0.3l1.9,2.3l-1.4,2.9l0,0.4l-0.5,0.8l0,0.7l0.5,1.2l0.5,0.3l-0.2,1.1l0.2,0.7l0.4,0.5l0.8,0l0.7,0.8l0.3,1.1l0.2,0.2l1.9-2.8l0.6-0.2l1,0.3l1.2-0.1l0.7,0.9l0.1,1l1.2-0.8l0.4,0.6l0.2,1l1-1.4l1.1-0.5l2.1,1.6l1.1,3.2l0.5-0.2l0.2-0.7l0.6-0.3l0.7,0.1l0.8,0.9L301.1,537.5L301.1,537.5z M279.9,532.9l-0.7,1l0.8,0l0.4-0.2l0.1-0.6L279.9,532.9L279.9,532.9L279.9,532.9z M281.3,517l-0.7,0.7l0.2,0.4l-0.2,0.6l0.7,0.5l0.1,0.2l0.3-0.7l-0.5-0.4l0.3-0.6L281.3,517L281.3,517L281.3,517z M323.9,510.2l0.3,1l0.8,0.3l0.1-0.5l-0.6-0.6L323.9,510.2L323.9,510.2L323.9,510.2z"
    data-comarca="Eivissa"
    data-capital="Eivissa"
    data-pais="Illes Balears"
    style="fill:#cccccc;stroke:#000000;stroke-width:0.5;"
  />
</svg>