<svg xmlns="http://www.w3.org/2000/svg" viewBox="298 541 22 22">
  <path
    id="formentera"
    class="balears"
    d="M299.5,562.4l-0.3-9.2l-0.6-0.8l1.7-2.3l0.8,1.3l1,0.2l0.3-0.4l0.1-0.7l0.5-0.1l0.6-0.8l0.4-4.7l0.8,4.4l2,2.2l0.9-0.2l0.1,0.8l2.3,3.4l3.2,2l1.3-0.1l2.4-1.8l0.9,0l1.3,1.9l0.3,1.6l-0.8,0.6l-0.3,0.9l-5-0.1l-3.4-2.9l-3.4-1.1l-2,0.3l-0.8,2.2l-0.6,0.2L299.5,562.4L299.5,562.4L299.5,562.4z M308.2,541.1l-0.3,0.9l0.3,1l0.7,0.3l-0.4-1.2l0.1-0.5L308.2,541.1L308.2,541.1L308.2,541.1z M302.7,541.9l-0.5,0.7l0.3,0.9l-0.4,0.6l0,1.2l1.1-1.1l0.4,0.5l0.1-0.5L302.7,541.9L302.7,541.9L302.7,541.9z"
    data-comarca="Formentera"
    data-capital="Sant Francesc"
    data-pais="Illes Balears"
    style="fill:#cccccc;stroke:#000000;stroke-width:0.5;"
  />
</svg>