<svg xmlns="http://www.w3.org/2000/svg" viewBox="215 182 49 40">
	<polygon
		id="garrigues"
		class="cat"
		points="217.2,221 220.3,221.4 221.1,220.7 223.3,220 224.5,219 225.8,219.1 227,218.5 229.1,218.6 230.2,218.1 232.3,217.9 232.3,217.4 233,216 233.8,215.8 238.3,216.8 238.9,216.5 240,212.5 241.4,212.1 241.6,213 243.2,215.2 251.8,213.4 253.1,212.4 252.7,211.4 253.4,210.8 254.7,208.1 255.7,208.4 255.8,207.8 256.7,207 256.7,206.5 258,206.5 258.9,205.8 259.4,204.4 259.9,204.2 260.7,201.8 261.9,201.3 262.3,200.1 263.4,199.4 262.9,198.8 261.7,198.6 259.8,196.7 260.9,195.7 259.7,194.4 259.6,193.5 257.6,193.4 257.1,192.6 254.2,191.9 254.9,189.5 254.4,188.4 254.8,187.9 252.2,185.5 252.6,184.8 252.6,183.9 247.9,182.7 245.2,184.6 244,183.3 242.4,184.7 241.6,184.8 241.6,185.1 240.5,185.9 239.6,185.3 239.3,185.5 237,185 235.7,185.7 235.5,186.4 234.5,185.9 234.7,186.9 234.2,188.1 232.4,188.1 232.2,189.2 232.7,189.7 231.2,190.4 229.7,191.9 227.9,191.1 226.5,194.4 226.9,195.7 226.4,197.4 224.4,197.1 223.7,198 223.6,200 221.5,200.2 220.5,201.1 219.8,200.8 219.5,203.6 220.1,204.9 220.2,206.4 219.6,208 216.2,210.5 216.2,212.6 215.8,213.3 216.2,214.3 215.6,218 216,219.5 217.2,221 "
		data-info="<div>Comarca: Garrigues</div><div>Capital: Les Borges Blanques</div><div>Catalunya</div>"
		style="fill:#cccccc;stroke:#000000;stroke-width:0.5;"
	/>
</svg>