<svg xmlns="http://www.w3.org/2000/svg" viewBox="382 83 44 42">
  <polygon
    id="garrotxa"
    class="cat"
    points="389.2,113.5 389.5,113.8 389,115 390.5,117.1 390.5,117.6 391.4,118.3 392.3,118.5 394.2,117.2 394.6,116.6 396.3,117.3 396.7,118.2 397.2,117.8 398.4,117.8 402.7,122.6 403.7,122.4 404,121.3 404.5,120.6 407,121.7 407.9,121.4 408.7,119.7 409.2,120.2 409.1,121.1 410.4,122.9 411.7,123.2 412.4,124.2 412.8,123.8 414,124.1 415,123.9 413.2,122 413,121.3 412.2,121.1 412.1,119.9 412.7,119.1 412.4,117.8 412.7,116.9 412,114.8 413.2,114.2 414.9,110.1 414.8,108.9 414.2,108.5 414.5,107.4 413.9,105.8 415,105.4 415,103.5 416.1,103.3 416.4,103.8 418.6,103.4 420.3,101.7 421.7,102.3 424.8,101.2 424.4,99.4 425.4,98.1 425.1,97 425.5,96.2 424.5,94.9 424.6,93.3 420.5,91.8 420.4,93.3 419.9,93.9 419.4,93.3 417.9,93.2 418.3,91.4 418,90.9 416.7,90.6 415.8,90.8 416.6,91.8 415.3,92.3 414.2,91.8 414.5,90.8 413.4,87.7 410.8,87.8 410.9,86.1 409.3,85.8 409.1,85.1 407.1,83.9 406,84.2 405.8,84.6 404.4,85.1 402.3,83.4 400.6,83.4 400.2,84.6 401.3,86.8 400.7,88.8 402.8,88.9 403.9,89.4 401.4,90.3 399.4,90 398.9,89.2 398.7,87.4 397.8,87.7 396.7,87.6 397,89.3 394.9,90.5 393.9,90 393.4,90.4 391.6,89.6 391.6,90.1 390.2,89.8 389.5,90.4 389.5,91.1 387.8,91.8 386.8,92.8 387.1,94.2 383.6,95.8 384,97.3 385.1,97.6 386.6,97.3 386,98.8 382.7,99.7 384.1,100.8 384.3,101.6 385.6,102.7 385.6,104.8 386.5,104.3 386.6,105 387.9,105.2 387.6,105.7 386.5,105.8 385.4,106.4 384.6,107.9 384.8,109.1 387.8,110.7 387,111.8 387.6,113.4 389.2,113.5 "
    data-info="<div>Comarca: Garrotxa</div><div>Capital: Olot</div><div>Catalunya</div>"
    style="fill:#cccccc;stroke:#000000;stroke-width:0.5;"
  />
</svg>