<svg xmlns="http://www.w3.org/2000/svg" viewBox="412 110 35 47">
  <polygon
    id="girones"
    class="cat"
    points="419,135.6 423.6,135.1 427.1,138 428.1,137.1 430.4,136.8 430.1,137.4 430.7,137.9 430.1,141.1 430.9,145 431,144.4 431.9,143.6 432.8,143.4 433.4,144.3 434.4,144.9 434.8,144.9 434.1,148.8 434.4,149.7 435.4,149.7 435.4,149 436.2,149 436.2,150 435.1,150.4 434.4,151.8 436.4,154.4 440.8,154.9 442,156.3 444.9,154 444.4,152.6 443.4,152.1 441.8,147.6 442.8,147.3 445.1,147.4 445.6,146.9 444.2,143.4 442.8,142.3 442.9,141.5 444,139.9 438.9,137.6 438.1,137.8 437,136.9 438.7,135.7 438.2,133.9 440,133.9 440.3,133.3 442.8,132.9 442.8,131.8 442.9,131.6 442.7,129.3 443,128.4 444.4,128.2 445.4,127.6 445.5,127.2 446.4,126.4 445.8,125.3 445.1,124.7 443.5,125 442.9,124.2 443.4,121.3 442.9,120.9 444.1,120.1 444.5,120.4 445.5,120.2 445.1,117.8 444.7,117 445.2,115.4 444.8,115.3 443.2,112.4 442.6,112.7 442.8,110.5 439.5,110.3 437.9,110.9 437,113.1 437.4,114 437.1,114.6 437.1,115.8 436.5,116.5 435.9,116.1 435.1,116.6 434.7,115.7 433.5,115.3 433.7,116.1 432.7,117.3 432.7,118.4 431.3,118.5 431.6,119.8 428.6,120.5 428.3,121.2 426.4,119.8 426.1,119 426.4,118.4 426,118 425.1,118.1 423.9,116.2 421.4,115.4 421.2,114.5 417.7,114 417,115.1 412,114.8 412.7,116.9 412.4,117.8 412.7,119.1 412.1,119.9 412.2,121.1 413,121.3 413.2,122 415,123.9 415.2,124.8 414.7,125.2 415.1,126.8 415.7,127.7 415.9,129 416.2,129.3 416,130.6 415.1,130.9 415.3,131.8 416.3,132.4 417.2,132.4 419.2,134.5 419,135.6 "
    data-info="<div>Comarca: Gironès</div><div>Capital: Girona</div><div>Catalunya</div>"
    style="fill:#cccccc;stroke:#000000;stroke-width:0.5;"
  />
</svg>