<svg xmlns="http://www.w3.org/2000/svg" viewBox="97 434 37 48">
  <polygon
    id="horta"
    class="pv"
    points="127,476.8 127.3,477.7 128.2,478 130,480.3 131.7,481.1 125.8,460.7 126.5,459.6 127.8,459.4 127.1,458.7 133.3,438 132.7,438 125.1,434.6 121.5,436.4 122.6,439.5 119.8,440.6 119,441.5 118.4,443.2 117,444.4 115.4,444.4 115.3,445 114.3,446.5 111.3,444.3 111.8,445.5 111.6,446.5 110.1,446.8 108.7,445.8 107.7,446.9 107.5,448.7 107.8,449.5 106.5,451.8 106.6,455 106.2,456.3 104.2,456.3 104.1,459 105.5,460 103.8,461.5 100,461.4 97.7,459.7 98.9,463.8 99.8,464.7 100.2,466.4 101.2,466.8 105.5,467 104.1,473.9 105.4,475.2 107.4,475.7 109.4,477.5 115.5,478.2 116.7,477.8 117,477.2 116.6,474.6 119.7,475.1 119.8,473.9 120.5,472.8 120.8,471.4 123.9,470.3 126.1,470.6 126.9,471.7 126.9,473 126.6,473.5 127.4,474.4 127.4,475.5 128.4,476.4 125.1,475 124.6,475.5 124.7,476.4 125.8,476.3 127,476.8 127,476.8 "
    data-comarca="Horta"
    data-capital="Valencia"
    data-pais="Pais Valencia"
    style="fill:#cccccc;stroke:#000000;stroke-width:0.5;"
  />
</svg>