<svg xmlns="http://www.w3.org/2000/svg" viewBox="550 217 28 23">
	<polygon
		id="l_alguer"
		class="alguer"
		points="555.8,217.8 554.8,220.1 555.1,221.1 554,220.9 553.4,221.3 552.4,221 552.7,222.5 551.3,222.2 550.7,223.2 552,230.3 552.7,230.7 553,229.2 552.8,227.7 553.5,227.6 553.5,226.6 555.2,225.2 555.2,223.9 556.4,223.8 557.5,224.6 557.7,226.1 556.5,226.9 557,228 556.3,229.4 557.3,230.4 557.9,229.4 559.2,230.1 560.7,229.6 561.2,227.6 563.1,228.4 564,226.9 566.2,227.5 568,229.7 567.2,231.5 568,232.5 568.3,234.4 569.2,235.9 569.4,237.2 570,238.1 570,239 571.7,239 573,239.5 573.4,237.4 576.9,235.3 577.1,234.5 576,231.9 576.3,230.3 574.4,225.2 575.4,223.6 575.3,223 573.5,222.8 570.8,223.7 570.8,221.8 569.4,220.3 569.6,218.7 568.9,217.8 565.7,219 563.1,218 560.7,218 559.3,218.6 555.8,217.8 555.8,217.8 "
		data-info="<div>L'Alguer</div><div>Sardenya</div>"
		style="fill:#cccccc;stroke:#000000;stroke-width:0.5;"
	/>
</svg>