<svg xmlns="http://www.w3.org/2000/svg" viewBox="184, 121, 34, 48">
	<polygon
		id="llitera"
		class="franja"
		points="192.2,121.5 191.6,121.2 190.5,121.3 189.4,122.1 190.1,124.5 189.5,125.9 188.4,125.3 187.7,125.5 187.5,127.3 188.5,128.7 188.1,130.8 186.2,131.2 184.3,135.9 184.7,137 185.9,136.9 187,138 186.1,140.7 185.6,141 185.7,141.8 186.1,142.1 185.6,143.3 185.8,143.9 186.7,144.7 186.3,146.1 187.4,147.1 188.4,146.5 189.2,146.8 190.7,151.6 192,151.8 191.7,152.7 190.3,153.6 190,155.8 192,157.9 192.7,162.9 193.7,164.3 193.5,164.9 191.4,165.4 191.5,166 193.1,168.6 194.7,167 194.8,165.6 195,165.6 196.1,163.6 197.3,164.8 197.5,161.5 203.9,160.7 204.4,160.1 204.9,157.4 206.2,155.4 207.3,155 207.7,154 209,153.2 211.5,153.3 212.4,151.5 212.3,150.4 212.9,149 215,149.3 215.2,148.3 214.9,147.7 215.5,147.3 217.2,146.9 217.6,145.9 216.2,144.8 216.8,141.9 216.4,141 216.8,140.4 217.5,140.4 213.2,138.6 213.6,137 214.7,135.5 214,134.6 212.7,133.8 208.6,133.6 207.4,134.5 206.6,133.9 206.2,134.3 205.6,134.1 205.5,133.7 204.8,133.9 203.6,135 203.7,133.6 204.7,132 204.7,130.8 200.5,125.9 200.4,124.5 198.6,121.5 197.9,122 196.8,121.8 196,122.3 192.8,122.8 192.2,122.3 192.2,121.5 192.2,121.5 "
		data-info="<div>Comarca: Llitera</div><div>Capital: Tamarit de Llitera</div><div>Franja de Ponent</div>"
		style="fill:#cccccc;stroke:#000000;stroke-width:0.5;"
	/>
</svg>