<svg xmlns="http://www.w3.org/2000/svg" viewBox="452, 409, 54, 69">
	<polygon
		id="mallorca_oriental"
		class="balears"
		points="454.4,465.8 455.2,465.5 458.2,468 458.4,469.9 458.2,470.5 458.5,471.4 459.4,471.7 460.1,471.1 460.2,472.1 460.5,471.9 461.1,472.4 461.1,472.8 461.6,472.8 461.4,474 462.6,474.8 462.6,475.5 463.9,476 464.4,477.3 465.2,477.6 466.7,477.7 472,471.3 473.1,471.1 474.1,469.4 476.7,469.2 477.7,468.4 478.4,468.2 478.6,466.9 478.3,466.1 480,466 480.5,465.4 480.7,464.6 481.3,465 481.8,465 482.8,464.3 482.2,463.7 483.5,462.6 485.9,457.7 485.4,457.6 485.2,457 485.7,456.1 486,456.3 486.2,456.9 486.7,457 487.2,450.4 487.8,449.2 487.7,448.5 488.2,446.9 492.6,442 492.5,441.4 494.7,439.9 495.3,439.8 495.5,439.1 495.8,438.8 496.1,436.6 498.2,436.5 498.6,435.9 498.5,435.5 497.5,435.2 496.8,434.6 496.8,433.3 498,429.5 498.8,428.6 499.5,428.6 500.1,429 501,429 501.7,428.5 502.1,426 502.6,425.8 503.5,425.9 503.1,422.3 503.5,421.9 503.2,421.2 503.3,419.7 503.9,419 505.3,418.6 505.4,418.1 505.1,417.6 503.9,417.7 502.8,417.2 502.8,416.4 503.7,415.1 503.4,414.6 503.5,414.2 501.5,414.6 500.4,413.9 499.6,413.8 497.7,412.2 495.6,412.2 494.5,411 493.5,410.5 492.1,409 491.2,409.7 490.8,410.6 490.9,411.8 490.2,413.2 484.5,416.6 483.6,416.7 483,417.2 481.5,417.1 480.4,420.2 480.4,421.1 479.5,421.4 479,422.8 478.2,422.4 477.8,421.4 475.9,421.9 475.4,422.4 474.5,422.6 473.5,424.4 474.1,424.6 473.6,425.4 472.2,425.5 471.9,426 471,426.6 470.4,426.3 466.7,427.2 466.6,430.1 464.2,432.2 463.5,432.3 462.5,431.6 461,432.5 460.8,433.8 459.5,433.4 457.1,434.3 456.2,435.2 455.1,434.6 453.7,434.8 452.9,436.1 452.9,436.7 455,439.3 455.1,444.5 456,445.5 455.2,446.9 455.5,447.5 455.5,448.1 456.5,448.6 455.9,449.8 454.6,450.3 454.7,451.5 455.1,452.4 454.5,452.9 454.4,453.9 455.3,454.8 455.9,456.3 453.6,458.7 452.5,465.4 454.4,465.8 "
		data-info="<div>Comarca: Mallorca Oriental</div><div>Capital: Manacor</div><div>Illes Balears</div>"
		style="fill:#cccccc;stroke:#000000;stroke-width:0.5;"
	/>
</svg>