<svg xmlns="http://www.w3.org/2000/svg" viewBox="431 387 51 49">
  <polygon
    id="mallorca_septentrional"
    class="balears"
    points="431,406.3 431.8,405.5 432.1,406 432.9,406 433.9,405.4 434,404.5 434.8,404.6 435.2,402.4 435.8,402.8 436.7,402.5 437.6,403 438,401.6 439,402.1 440.2,401.8 441,401.2 441.6,401.4 442.7,399.8 444.2,399.6 447.4,396.8 449.2,396.5 450.4,395.9 451.8,393.7 454.8,394.9 456.1,394.8 459.6,391.5 460.7,391.4 460.9,391.9 462.9,391.5 462.8,393 464.9,392.5 466.4,391.2 466.9,391.7 467.9,391.3 468.9,391.4 469.8,390.5 469.7,389.9 471,389.3 471.5,388.7 474.6,387.5 474.2,388.3 474.8,388.8 475.7,388 476.6,388.1 478,387.4 477.6,388.6 476.6,389.9 471.6,393.2 471.3,392.4 470.7,392.1 470,392.4 469.8,393.2 469.1,393.9 468.5,394.2 467.8,394.2 468.1,395.6 466.6,394.6 465.8,394.5 465,395.7 465.7,399.4 466.5,400.5 468,401.1 469,400.4 469.4,400.4 469.7,400 470.4,399.7 471.3,400 475.6,397.2 476.1,396.5 476.5,396.3 477.4,396.7 475.8,398 476.1,398.3 475.7,399 475.8,400.2 477,400.2 475,403.1 474.2,403.7 473.7,403.2 473.4,403.6 472.3,403.7 471.6,404.2 471.1,403.5 470.7,403.7 470.2,403.4 469.5,404.1 469.1,406.7 472,411.8 481.5,417.1 480.4,420.2 480.4,421.1 479.5,421.4 479,422.8 478.2,422.4 477.8,421.4 475.9,421.9 475.4,422.4 474.5,422.6 473.5,424.4 474.1,424.6 473.6,425.4 472.2,425.5 471.9,426 471,426.6 470.4,426.3 466.7,427.2 466.6,430.1 464.2,432.2 463.5,432.3 462.5,431.6 461,432.5 460.8,433.8 459.5,433.4 457.1,434.3 456.2,435.2 455.1,434.6 453.7,434.8 452.8,433.2 449.2,434.2 448.5,433.8 447,434.5 445.9,434.2 444.9,434.6 443.6,432.9 443.6,430.5 442,428.7 440.3,429.7 436.6,426 436.2,424.8 434.7,423.8 434.9,422.3 433.3,420.4 434.4,419 435.1,419 437.7,417 437.5,416.3 436.7,415.9 437.8,413.7 437.4,412.6 436.7,412.7 435.3,414.2 435,415.1 432.4,416.3 432.2,416.1 432.4,415.5 433.9,414.1 433.6,413.5 436.1,409.7 435.4,409.5 433.5,406.9 431.4,406.9 431,406.3 431,406.3 "
    data-info="<div>Comarca: Mallorca Septentrional</div><div>Capital: Inca</div><div>Illes Balears</div>"
    style="fill:#cccccc;stroke:#000000;stroke-width:0.5;"
  />
</svg>