<svg xmlns="http://www.w3.org/2000/svg" viewBox="377 158 51 39">
  <polygon
    id="maresme"
    class="cat"
    points="408.7,179.9 422.4,173.5 422.9,172.8 423.4,172.8 425.4,171.5 427.3,171.2 427.8,170.7 425.8,167.1 426.9,165.7 426.3,161 427.4,160.2 427.3,159.6 424.2,159.9 422.3,158.7 417.1,162.7 415.6,161.8 414.5,163 413.4,166.1 412.1,165.9 410.5,166.9 411.3,168 410.4,168.8 410.1,170 405.9,170.2 405.4,170.7 404.6,172.5 404.3,172.9 404,174 401.3,175 400.4,175 399.8,173.9 399.2,174.3 398.5,174 396.3,174.4 395.6,174.2 394.7,174.5 393.7,174.3 391.4,177.2 390.9,177.4 389.8,178.7 389.1,178.9 385.6,183.4 385.4,185.8 383.8,187.2 385.1,187.7 384.5,189.3 383.6,189.1 382.9,189.6 380.3,189.7 379.3,190.2 378.9,191 378.4,191 377.7,192.7 377.1,193 379.5,196.6 383.5,194.5 383.6,194.8 387.7,193 388.3,193.1 388.6,192.4 389.2,192.5 391.5,190.7 392.1,190.5 395.7,187.3 396.3,187.1 396.4,186.6 407,180.5 407,181.1 408.7,179.9 "
    data-comarca="Maresme"
    data-capital="Mataro"
    data-pais="Catalunya"
    style="fill:#cccccc;stroke:#000000;stroke-width:0.5;"
  />
</svg>