<svg xmlns="http://www.w3.org/2000/svg" viewBox="128 531 55 35">
  <polygon
    id="marina_alta"
    class="pv"
    points="140.5,555.5 136.5,554.1 137,551.9 135.2,549.3 136.1,548.3 139,546.8 133,546.2 130.4,547.6 129.9,546.5 130.5,545.1 130.4,542.2 129.1,540.3 128.1,540 131.3,537.7 133,535.2 135,535.3 136.1,535.8 139,535.3 139.4,534.4 141.1,532.8 142.2,532.6 143,531.9 143.7,533.4 143.8,535.1 144.4,535.5 149.1,533.2 150.1,533.5 151,532.5 152.2,532.1 152.7,533.3 154.3,534.3 155.1,535.6 156.6,534.8 156.5,533.7 155.4,532.3 155.2,531.7 169.8,536.7 171.6,538.4 173.2,538.5 178.8,542.1 178.8,542.8 177.7,543.7 178.4,545.8 180.6,548 181.9,548 181.7,548.8 182.4,549.6 182.6,550.6 182.4,551.9 181.4,551.8 181.1,552.3 180.1,551.5 175.9,555 174.3,558.3 173.8,557.4 172,557.8 170.7,559 170,559 168.4,559.9 166.9,562.9 167.5,564.4 167.2,564.8 166.3,564 165.9,563.2 163.1,564 162.4,565.2 160.4,564.6 159.6,563.4 154.8,560.9 153.8,560.9 153.2,560.5 152.6,558.9 154.4,553.4 153.4,552.7 149.9,552.4 149.1,551.8 147,552.6 146.3,552.1 145,551.9 144.6,550.9 144.2,555.3 143.6,556.1 140.5,555.5 140.5,555.5 "
    data-info="<div>Comarca: Marina Alta</div><div>Capital: Dénia</div><div>País Valencià</div>"
    style="fill:#cccccc;stroke:#000000;stroke-width:0.5;"
  />
</svg>