<svg xmlns="http://www.w3.org/2000/svg" viewBox="117, 550, 44, 34">
	<polygon
		id="marina_baixa"
		class="pv"
		points="125.6,565.6 125.6,564.4 126.1,563.8 128.1,563 127.6,559.2 128.5,558.4 128.1,557.5 128.3,556.1 131.1,554 133.4,553.4 143.6,556.1 144.2,555.3 144.6,550.9 145,551.9 146.3,552.1 147,552.6 149.1,551.8 149.9,552.4 153.4,552.7 154.4,553.4 152.6,558.9 153.2,560.5 153.8,560.9 154.8,560.9 159.6,563.4 160.4,564.6 158.7,564.9 152.7,571.8 154,573.5 149.1,578.4 148,577.3 145,576.8 143.4,577.1 141.7,579.5 139.4,579.6 137.3,580.8 136.4,580.5 135.2,581.5 128.9,583.7 128.1,582.3 126.8,581.4 124.5,578 123.4,577.7 122.2,576.6 119.5,576.8 118.7,576.4 119.3,575 119.3,573.8 117.7,572 125.6,565.6 125.6,565.6 "
		data-info="<div>Comarca: Marina Baixa</div><div>Capital: La Vila Joiosa</div><div>País Valencià</div>"
		style="fill:#cccccc;stroke:#000000;stroke-width:0.5;"
	/>
</svg>