<svg xmlns="http://www.w3.org/2000/svg" viewBox="129 220 68 79">
	<polygon
		id="matarranya"
		class="franja"
		points="162.4,240.8 165.9,235.9 166.6,235.7 168.3,236.1 168.6,231.4 167.7,230 168.4,226 167.8,225.2 168,223.7 167.9,223 168.6,222.6 171.6,225.3 172.8,225.3 173.9,226.1 174.8,226.3 175.7,225.4 177.2,225.8 178.2,225.2 181.2,226.4 183.5,226.1 183.5,225.4 182.9,224.2 183.4,223.1 185.5,221.5 187.6,221.1 190.2,221.7 191.9,223 192.5,222.7 192.3,221.4 193.2,220.5 194.9,220.3 196.9,223.5 196.7,223.5 195.9,225.6 195.9,226.8 195.6,227.8 196,228.7 194.8,228.5 194.7,229.9 194.3,230.1 192.1,229.6 192,230.2 191.4,230.6 190.6,230.2 190.7,230.4 190.3,230.8 188.6,238.6 188.2,238.4 187.7,238.6 187.7,238.8 187.3,238.8 185.6,240 183.9,239.9 183.9,240.1 184.1,240.5 184.1,240.9 183.7,241.3 183.7,241.8 183.6,242.2 183.2,242.6 182.6,242.6 180.7,241.8 179.9,241.8 180.5,242.2 180.5,242.3 180.3,242.5 178.8,243 178.8,243.4 179.6,244.1 179.3,245.5 178.7,245.7 178.8,248.2 179,248.6 180.1,248.3 180.7,248.5 180.9,248.9 180.9,249.1 180.6,249.3 180.4,249.3 180.4,249.5 180.8,249.6 180.8,250.2 180.4,250.8 180.8,251.6 181.4,251.9 181.4,252.5 180.5,253.3 180.5,253.9 180.9,253.9 181.7,253.3 181.9,253.3 182.1,253.5 182.1,253.6 181.7,254.4 181.7,254.6 181.9,254.8 182.9,255 183.1,254.8 183,254 183.2,254 183.4,254.2 183.6,254.7 185.2,256 185.6,256 186.6,256.6 186.6,256.8 186.2,256.9 185.8,256.8 185.1,256.8 184.7,257 184.5,257.2 184.7,257.8 185.1,258 185.7,257.9 186.1,258.7 185.7,258.9 185.5,259.3 185.5,259.7 186.6,260.8 186.8,262.7 187.4,262.7 187.8,262.9 187.8,263 187.3,263.8 187.1,263.9 187.1,264.8 186.7,265.6 186.2,266 185.8,266.6 186,267.5 185.3,268.5 184.9,268.6 184.2,269.3 184.2,270.7 183.8,270.7 183.7,270.9 183.7,271.1 184.1,271.6 183.7,271.9 183.7,272.8 183.4,273.2 183.4,273.8 182.8,274 182.6,274.2 183.8,274.9 184.2,275.5 184.2,276.1 183.9,277.1 185,280.5 186.6,282.3 186.4,282.5 186.2,282.5 185.5,283.1 184.7,285.1 183.8,285.3 183.3,286.1 182.3,286.7 182,289.2 181.6,289.4 180.1,289.3 179,290.7 178.8,290.5 178.6,290.5 178.1,291.5 177.9,291.5 177.5,290.9 177.3,291.1 176.7,291 176.6,292.7 176.2,292.5 175.4,291.6 175.2,291.6 176,293.9 175.1,294.9 172.8,295.5 170.1,294.4 166.6,296 163.4,299 161.7,298.6 161.5,297.2 162,296.2 160.6,294.2 157.4,293.9 156.1,295.1 155,294.4 152.5,294.3 149.8,292.5 148.6,292.2 145,288.9 145,286.9 140.1,287.1 136.2,284.4 134.6,284.3 133.5,282.9 134.2,282.8 135.6,281.7 136.3,281.6 137.9,278.4 129.5,274.4 129.5,273.9 130.5,273.4 130.8,272.5 131.8,273 134,272.8 137.2,273.7 137.9,273.1 144.9,273.8 144.7,272.1 144.1,271.1 145.1,265.7 145.9,265.6 148.1,266.7 153.2,265.9 154.4,266.2 155.8,267.7 156.5,267.6 155.9,264.9 160,261.5 161.6,258.1 161.3,254.2 162.9,253.2 158.4,245.7 158.4,242.9 158.1,242 159.1,241.3 160.1,242.7 162.4,240.8 162.4,240.8 "
		data-info="<div>Comarca: Matarranya</div><div>Capital: Vall-de-Roures</div><div>Franja de Ponent</div>"
		style="fill:#cccccc;stroke:#000000;stroke-width:0.5;"
	/>
</svg>