<svg xmlns="http://www.w3.org/2000/svg" viewBox="535 366 54 38">
  <path
    id="menorca"
    class="balears"
    d="M535,377.8l1.2-0.7l0.5-0.6l-0.2-0.5l1.5-2.6l1.4-0.1l0.7-0.4l2.1-0.3l0.8,0.4l2.4-0.8l1.6,1.3l0.7,0.2l0.1-0.5l-0.2-0.6l1.4-1l0.5,0.6l0.7,0l1.3-0.6l1.2,1.1l1.3,0l0.2-0.5l1.6-0.6l1,0.2l1.4-0.8l0.4-0.7l1.6,1.9l0.5-0.1l0.4-0.6l1.7-0.3l0.1-0.8l0.6-0.2l0.1-0.6l0.6-0.5l-0.1-1l-1.3-1.3l1.8,0.6l0.2,0.8l-0.1,1.1l0.3,0.7l0,0.7l0.5,0.6l0,0.8l0.3,0.7l0.6-0.3l0.2-1l0.8-0.2l0.8-1l0.4,0.5l-0.9,3.4l0.7,0.8l0.3-0.9l0.6,0.2l0.2-1l-0.3-0.8l0.1-1.5l-0.4-1l0.4-0.3l1.2,0l2.1,0.8l-0.7,0.6l-0.1,1l0.2,0.5l-0.4,0.4l0.1,0.7l0.9,0.3l-0.1,1.2l0.7-0.1l0.8,0.3l0.2-0.9l0.4-0.6l0.3,0.3l0,0.7l1,0.8l-0.5,1l0.5,0.4l0.6-0.4l0.3,0.9l0.7,0.2l0.7,0.6l2.1-0.7l2.2,0.3L581,379l0.9,1.6l-0.5,1.2l-0.1,1l0.8,0l0.5,1.2l-0.3,0.6l1-0.1l0.6,0.9l-0.4,0.5l-0.2,0.6l0.5,0.8l0.6,0.4l0.5,1.5l0.6,0.5l0.1,0.7l0.6,0.8l0.8-0.2l-0.1,0.7l0.9,1.5l0.9,0.5l-1,0.4l-0.1-0.6l-5.3-1.8l5,2.8l-0.3,0.7l0.2,2.2l-0.7,0.9l0.5,1.1l-0.9,0.8l-0.5,1.5l-2,0.9l-2.5-0.7l-0.4,0.2l-1.5-1.1l-0.5-0.1l-0.4-0.4l-0.8,0.1l-0.6-0.7l-0.5,0l-5.3-3.3l-0.3-0.5l-2.1-0.4l-10.5-6.5l-0.5,0.1l-5.8-1.7l-1.3,0.3l-0.7-0.3l-0.3,0.5l-1,0l-0.8,0.6l-0.3,0.6l-0.8-0.1l-0.7,0.2l-0.3-0.4l-0.3,0.3l-3.8,0.5l-1.5-0.5l-1.3,0.3l-0.4-0.4l0.5-3.7l0.7-1.1l-0.4-0.9l0.1-0.7l0.5-0.3l-0.6-0.4l-0.5-1.5l0.6-0.4l0.1-0.5l-2.1,0.6l-0.6-0.3l-0.6,0.2l-0.6-0.4L535,377.8L535,377.8L535,377.8z M583.4,382.3l-0.3,0.5l0.2,0.5l0.4,0.3l0.5-0.5l-0.2-0.5L583.4,382.3L583.4,382.3L583.4,382.3z M585,403.6l0.8,0.2l0.4-0.2l-0.6-0.4L585,403.6L585,403.6L585,403.6z"
    data-comarca="Menorca"
    data-capital="Maó"
    data-pais="Illes Balears"
    style="fill:#cccccc;stroke:#000000;stroke-width:0.5;"
  />
</svg>