<svg xmlns="http://www.w3.org/2000/svg" viewBox="343 138 34 28">
  <polygon
    id="moianes"
    class="cat"
    points="343,157 344.4,157.4 344.2,159 345.6,160.7 346.4,160.8 350.5,159.5 352.8,161.1 352.8,162.7 353.6,162.3 354.5,165.5 355.9,164.4 360.8,165.3 361.8,165.1 362.1,164.5 363.1,163.9 364.4,164.5 365.1,164.2 368.7,164.4 370.6,163.8 371.2,164.3 371.6,165.3 373,164.7 373.3,165.3 375.4,164.6 375.9,165 376.1,164.4 375.8,163.2 376.1,161.9 375.5,162.1 375.2,161.7 374.7,162.1 374,161.9 373.3,162.3 371,162.3 370.2,160.7 370,154.2 369.4,153.5 371.2,148.4 370.6,147.9 370,145.3 369.2,146.2 367.5,145.8 366.5,146.2 365.1,145.3 364.3,144.2 364.6,143.2 363.8,142.3 365.2,141.9 365.7,140.2 364.8,138.7 361,140 360.5,139.4 359.7,139.6 359,140.5 356.5,140.8 354.6,139.6 353.1,139.3 353,140 353.4,141.1 353,142.7 352.2,142.9 353.2,143.7 351.7,146 349.9,147.2 349.9,148.6 352.5,149.2 353.2,150.6 354,150.6 354.7,150.9 355.7,152.5 355,153.2 343,157 "
    data-info="<div>Comarca: Moianès</div><div>Capital: Moià</div><div>Catalunya</div>"
    style="fill:#cccccc;stroke:#000000;stroke-width:0.5;"
  />
</svg>