<svg xmlns="http://www.w3.org/2000/svg" viewBox="175 287 71 34">
	<polygon
		id="montsia"
		class="cat"
		points="210.8,318.6 210.8,318.2 217.3,309.2 217.9,308.9 218.9,307.7 231.5,305.4 232.3,305.6 229.2,311.6 228.7,312 227.3,312.1 226.9,311.8 226.5,312 225.6,311.5 224.4,311.7 223.9,312.3 221.8,313 220.7,312.9 220,312.4 220.1,313.8 219.8,313.8 219.1,313.5 218.7,313.9 217.9,313.4 219,316 219.6,316.4 221.5,316.8 227.2,314.7 233.5,305.6 244.3,298.7 245.9,295 241.5,295.7 237.6,298.2 235.9,298.1 232.9,296.4 226.1,295.5 225.5,295 219.6,297.1 216.1,295.6 214.6,291.2 213.5,292.1 212.5,292 211.9,291.7 211.6,292 210.9,291.9 209,292.8 199.8,292.6 196.9,290 193,290.5 191.8,290.1 191.6,291.5 190.9,291.5 190.1,292.1 188.7,291.5 188.1,291.5 187.5,289.3 186.6,289.9 186.1,289 186.7,288.7 186.1,287.7 184.1,287.3 182.8,287.6 182.4,288.1 182,289.2 181.6,289.4 180.1,289.3 179,290.7 178.8,290.5 178.6,290.5 178.1,291.5 177.9,291.5 177.5,290.9 177.3,291.1 176.7,291 176.6,292.7 176.2,292.5 175.4,291.6 175.2,291.6 176,293.9 177.6,294.6 178.2,294 178.6,295 179.5,294.7 179.7,294.3 180.7,293.9 181.6,293.9 181.5,295 182.5,297.9 183.1,298.1 184.6,297.2 185,297.2 186,297.7 186.6,298.9 187.8,299.4 188,300 187.1,301.6 186.3,301.8 185.8,303.3 185.9,304.7 185.7,304.9 185.9,305.8 186.3,306.2 186.5,306.2 186.9,307.4 187.9,307.9 188.1,307.9 188.5,307.7 188.7,307.7 188.9,308 193.4,310 197.4,310 198.8,310.6 199.4,311.7 201.8,313.5 202.9,313.5 202.9,313.7 202.4,314.5 202.5,317.5 210.1,320.7 210.8,318.6 "
		data-info="<div>Comarca: Montsià</div><div>Capital: Amposta</div><div>Catalunya</div>"
		style="fill:#cccccc;stroke:#000000;stroke-width:0.5;"
	/>
</svg>