<svg xmlns="http://www.w3.org/2000/svg" viewBox="213 113 73 58">
  <path
    id="noguera"
    class="cat"
    d="M223.4,164.8l-7.5-9.7l-1.1-4.6l0.3-2.1l-0.2-0.6l0.6-0.4l1.7-0.4l0.3-1l-1.4-1.1l0.7-2.9l-0.4-1l0.4-0.6l0.8,0l-4.3-1.8l0.3-1.5l1.9-2.4l0.8-0.4l1.2,0.7l0.6-1l0.1-1.4l0.6-0.6l0-0.6l1.9-0.7l0.5,1.5l0.3-1.7l0.9-0.6l0.7-1.6l-0.2-0.4l-0.4,0l-0.4-1.5l0.5-1.8l0.9-0.6l0.3-2.5l0.7-1.4l0.4,0.9l3.4,2.1h2.6l0.7,0.9l1.9,0.6l2.7-0.7l5.2,1.2l3.4-0.9l0.2,0.6l3,2l2.8-0.3l1.6,0.5l4-0.3l1-1.5l0.8,0.3l3.8-0.7l0.6,1.3l0.1,2.5l0.6-0.2l0.9-2.4l-1.4-2.5l2.9-4.6l1-0.8l2-4.1l1,0.5l0.5-0.9l0.8,0l0.4,5.2l1.2-0.7l0.5,0.2l1.3-0.5l0.7,1.3l1.1,0l0.3,0.3l0,0.9l1.4,0.3l0.7,2.1l-0.8,0.4l0.6,1.6l-0.2,1.4l1.5,2.2l1.3,0.8L280,132l0.5,0.8l-1.4,4.3l4.2-2.3l1.8,0.6l0.4,0.8l-1.6,3.3l0.1,0.7l-0.6,1l0.2,1.2l-1,3l-1.7,1.6l-0.4,1l-2.3,2l0.2,0.9l-2.3,2.8l-1-0.3l-3.9,4.2l-1.9-0.6l-0.5-2l1.3-1.4l0.2-1.1l-1.3,0.5l-0.9,1.7l-2.9-0.8l-0.1-0.9l0.3-1.2l0.9,0.7l0.9-0.9l-0.1-2.7l-1.4-0.3l-1-0.7l-2.2,4.5l0.6,0.1l-4.4,7.1l-1.2-1l-0.8,0.1l-0.5,0.7l-2.1,0l-3.1,3.5l0.6,1.6l1.1-0.3l0.2,0.4l0.7-0.1l0,2.3l-0.5,0.9l-0.5,0.5l-0.8-0.2l-1.1,0.5l-2.4-0.8l-1-1.6l-0.3-2.4l-1.9,0.1l-0.2-0.4l-1.5,0.4l-1.1-0.2l-1,1.6l1.1,0.5l-0.6,1.4l-1.6,0.6l-0.5-0.6l-2.5,0.4l-0.1,1L234,169l0.2,1.3l-1.5,0.2l-0.2-1.1l-2-2.5l-0.3,0.8l-1.2,1.2l-0.9-0.4l-0.7,0.9l-0.4-0.6l-0.7,0.6l-0.8-1.7l-2.3-2.1L223.4,164.8L223.4,164.8z M259.5,148.5l-0.5,0.2l-0.8-0.5l-0.6,0.6v1.3l0.3,0.4l-0.4,1.1l1,1.4l0.6-0.8l1.5-0.6l0.1-0.9l1.3,0.1l-0.4-1.6l-0.5-0.7v-0.6l-1.1-0.2l-0.6,0.2L259.5,148.5L259.5,148.5z"
    data-comarca="Noguera"
    data-capital="Balaguer"
    data-pais="Catalunya"
    style="fill:#cccccc;stroke:#000000;stroke-width:0.5;"
  />
</svg>