<svg xmlns="http://www.w3.org/2000/svg" viewBox="350, 104, 50, 59">
	<polygon
		id="osona"
		class="cat"
		points="400,122.4 398.1,120.6 397.8,119.8 399,118.9 398.4,117.8 397.2,117.8 396.7,118.2 396.3,117.3 394.6,116.6 394.2,117.2 392.3,118.5 391.4,118.3 390.5,117.6 390.5,117.1 389,115 389.5,113.8 389.2,113.5 387.6,113.4 387,111.8 387.8,110.7 384.8,109.1 384.6,107.9 385.4,106.4 386.5,105.8 387.6,105.7 387.9,105.2 386.6,105 386.5,104.3 380.4,106.6 376.7,105.9 378.4,106.8 379,107.7 378.6,108.8 376.9,108.3 374.4,109.4 374,108.6 371.3,109.3 371.3,110.4 370.6,111.2 369.1,111.1 368.8,110 366.5,109.9 364.8,110.5 363.2,112.9 360.6,111.3 360.6,109.7 360,109 356.9,110.2 357.8,110.6 357.8,111.2 356.9,112 355.9,112.1 356.3,113.7 355.6,114.2 357.1,114.9 356.8,116.4 356.3,115.5 355.1,116.1 355.4,117.1 354.5,117.6 353.7,115.5 352.7,115.6 352,116.8 351.8,122.4 351.2,123.1 351.4,123.9 353.4,124 353.4,124.4 352,128.5 351.2,129.2 351.3,130.8 350.3,131.8 351.4,131.8 352,132.2 353,132.2 354.7,132.8 354.1,135 353,135.2 352.7,135.8 354.1,135.9 355.2,139 356.3,139.9 355.7,140.3 356.5,140.8 359,140.5 359.7,139.6 360.5,139.4 361,140 364.8,138.7 365.7,140.2 365.2,141.9 363.8,142.3 364.6,143.2 364.3,144.2 365.1,145.3 366.5,146.2 367.5,145.8 369.2,146.2 370,145.3 370.6,147.9 371.2,148.4 369.4,153.5 370,154.2 370.2,160.7 371,162.3 373.3,162.3 374,161.9 374.7,162.1 375.2,161.7 375.5,162.1 376.1,161.9 377.3,161.9 377.7,161.4 377.2,160.9 377.4,159.7 376.3,159.2 376.1,158.5 376.6,157.3 376.1,156.5 376.1,155.6 377.9,152.4 378.2,153.4 380.1,154.2 380.2,153.8 381.3,153.1 383.7,154.4 384.6,157.2 385.7,157.3 387.5,156.4 387.6,154.5 387.2,153.7 387.9,153.2 389,151.4 390,152.1 391.6,152.2 392.4,151.9 391.7,150.7 391.5,149.4 392.9,147.5 392.3,146.1 393,145.4 394,145.4 394.5,144.6 395.1,144.2 395.4,141.9 394.6,141.3 394.7,140.4 397.9,137.3 397.9,136 397.3,134.5 396.3,134.5 395.6,133.9 394.3,134.1 393.8,133.5 394.1,132.2 393.5,131.1 392.7,130.9 393.8,130 395.4,130.8 397.2,130.5 397.1,129.8 397.6,129.3 397.6,128.7 398.1,128.2 396.7,127.3 397.7,126.4 397.8,127 399.5,126.2 399.5,125.6 399.7,125.1 399,124.7 399,123.7 399.7,123.3 "
		data-info="<div>Comarca: Osona</div><div>Capital: Vic</div><div>Catalunya</div>"
		style="fill:#cccccc;stroke:#000000;stroke-width:0.5;"
	/>
</svg>