<svg xmlns="http://www.w3.org/2000/svg" viewBox="248, 28, 49, 68">
	<polygon
		id="pallars_sobira"
		class="cat"
		points="257.5,28.1 258.3,28.8 261.4,28.1 264.3,30.1 264.7,30.9 265.7,31.4 266.5,32.7 266.8,35.5 268.1,36.3 268.6,37.1 270.4,38 272.4,36.7 274.9,36.3 275.9,35.4 277,35.8 278.1,37 278.8,37.1 279.6,36.7 280.8,36.9 285.3,35.7 286.6,36.3 288,36.2 288,36.9 287.7,37.8 287.7,38.7 288.7,39.4 290.2,39.7 291,40.6 291,42.7 292,42.9 292.7,44.3 293.4,44.6 294.5,48.7 295,49.3 295,49.9 296.4,51.2 295.8,52.7 295,53.3 295,54.2 296.4,55.5 296.4,56 294.7,57.3 293.9,60 290.3,62.8 289.3,62.1 288.9,66.3 287.4,67.1 287.4,67.7 284.9,71.7 283.7,71.1 280.5,72 279.1,70.9 278.6,72.3 279.4,75.2 278.3,75.2 277.9,75.8 278.1,79.3 277.2,81.6 274.7,82.8 273.8,84 272.7,84.3 270.3,89.5 267.5,89.8 267.3,90.6 266.6,91.4 269.3,93 269.9,93.8 270,94.7 269.4,95.9 267.5,95.4 265.9,94.1 265.3,94.5 258.5,93.2 257.5,92.6 257.2,93.1 256.3,92.1 255,92 254.4,91.5 252.5,91.3 252.3,89.2 251.5,89.2 250.3,87.3 251,85.8 252.8,85.9 254,84.6 255.2,79.3 256.8,78.1 257.2,76.2 258.7,75.5 258.3,74.9 257.7,75 256.3,73.3 256.3,67.8 256.8,67 256.6,65.6 257.3,64.5 256.7,63.3 256.9,61.9 255.5,59.9 254.5,60.3 253.1,58.2 251.7,58.6 251.4,55.8 250.3,54.7 249.1,54.9 248.8,53.8 249.7,53 249.7,52.3 250.9,51.8 251.2,50.2 250.6,50.2 250.2,49.4 252.8,41.5 251.7,40.5 252.3,39.4 253.7,38.8 254.6,37.6 255.2,38 256.7,37.7 256.1,36 256.6,35.2 257.5,28.1 "
		data-info="<div>Comarca: Pallars Sobirà</div><div>Capital: Sort</div><div>Catalunya</div>"
		style="fill:#cccccc;stroke:#000000;stroke-width:0.5;"
	/>
</svg>