<svg xmlns="http://www.w3.org/2000/svg" viewBox="224 58 49 71">
  <polygon
    id="pallars_jussa"
    class="cat"
    points="230.6,123.3 228,123.3 224.7,121.2 224.3,120.3 226.4,114.2 226,113.3 225.9,110.4 226.6,109.4 227.6,108.8 226.2,108.1 226,107.7 227.7,101.7 227.5,100.9 228.6,99.5 228.9,98.2 229.4,97.4 230.4,91.4 231.5,90 231.3,89.4 232.4,88.2 230.4,87.7 230,86.2 231.1,85.6 231.3,85.2 232.3,84.8 232.6,84.4 231.8,83.8 231.6,83.8 231.8,83 232.9,81.5 234.4,81.8 236.1,83.6 235.8,84.4 233,85.2 232.5,85.8 233.4,85.9 233,86.7 235.1,87.8 235.5,88.3 236.3,88.3 237.1,88.9 240.1,89.3 242.7,90.9 244,90.3 244.2,86.7 242.5,85.6 241.6,82.3 240.1,82.2 237.4,79 238.7,77.8 237.7,76.1 238.6,74.9 240.6,74.8 241.3,74.4 242.2,72.7 240.9,71.2 241.7,70.3 243,70.3 244.2,68.2 246.8,67.2 247.2,66.1 246.9,64.6 247.8,63 249,63 249.1,62 250.2,61.2 250.2,60.2 251.7,58.6 253.1,58.2 254.5,60.3 255.5,59.9 256.9,61.9 256.7,63.3 257.3,64.5 256.6,65.6 256.8,67 256.3,67.8 256.3,73.3 257.7,75 258.3,74.9 258.7,75.5 257.2,76.2 256.8,78.1 255.2,79.3 254,84.6 252.8,85.9 251,85.8 250.3,87.3 251.5,89.2 252.3,89.2 252.5,91.3 254.4,91.5 255,92 256.3,92.1 257.2,93.1 257.5,92.6 265.3,94.5 265.9,94.1 267.5,95.4 269.4,95.9 270.1,97.6 268.4,98.9 268.8,100.4 270.8,101.1 271,103.4 270.2,104.5 272.1,105.8 272.7,107.3 272.4,108.9 270.7,109.9 270.6,111.4 270,112.2 270.1,113.6 269.6,114.5 268.5,114 266.6,118.1 265.6,118.9 262.7,123.5 264.1,126.1 263.2,128.5 262.5,128.7 262.5,126.2 261.8,124.9 258,125.6 257.1,125.3 256.1,126.8 252.1,127.1 250.5,126.7 247.7,126.9 244.7,124.9 244.5,124.3 241,125.3 235.8,124.1 233.1,124.8 231.2,124.2 230.6,123.3 "
    data-info="<div>Comarca: Pallars Jussà</div><div>Capital: Tremp</div><div>Catalunya</div>"
    style="fill:#cccccc;stroke:#000000;stroke-width:0.5;"
  />
</svg>