<svg xmlns="http://www.w3.org/2000/svg" viewBox="412, 98, 26, 24">
	<polygon
		id="pla_de_l_estany"
		class="cat"
		points="413.2,114.2 414.9,110.1 414.8,108.9 414.2,108.5 414.5,107.4 413.9,105.8 415,105.4 415,103.5 416.1,103.3 416.4,103.8 418.6,103.4 420.3,101.7 421.7,102.3 424.8,101.2 424.4,99.4 425.4,98.1 426.1,99.7 428.2,99.4 428.9,99.6 431,99.5 430.9,100.8 430.3,101.8 431.1,102.3 432.2,102.1 433,101.3 433.3,99.5 435.1,100.2 434.9,101.6 436.4,102.2 436.8,103.7 437.1,104.2 436.2,105.4 436.8,105.9 436.8,106.5 437.4,107.1 437.9,110.9 437,113.1 437.4,114 437.1,114.6 437.1,115.8 436.5,116.5 435.9,116.1 435.1,116.6 434.7,115.7 433.5,115.3 433.7,116.1 432.7,117.3 432.7,118.4 431.3,118.5 431.6,119.8 428.6,120.5 428.3,121.2 426.4,119.8 426.1,119 426.4,118.4 426,118 425.1,118.1 423.9,116.2 421.4,115.4 421.2,114.5 417.7,114 417,115.1 412,114.8 413.2,114.2 "
		data-info="<div>Comarca: Pla de l'Estany</div><div>Capital: Banyoles</div><div>Catalunya</div>"
		style="fill:#cccccc;stroke:#000000;stroke-width:0.5;"
	/>
</svg>