<svg xmlns="http://www.w3.org/2000/svg" viewBox="229 163 37 26">
  <path
    id="pla_d_urgell"
    class="cat"
    d="M261.2,170.5l0.5,0.2l3.8-2.8l-0.2-0.4l-1.4,0.7l-0.3-0.3L261.2,170.5L261.2,170.5z M229.7,177.1l0.7-2.4l-0.1-1.2l2.5-0.5l0.3-1.7l-0.4-0.8l1.5-0.2L234,169l3.3-0.7l0.1-1l2.5-0.4l0.5,0.6l1.6-0.6l0.6-1.4l-1.1-0.5l1-1.6l1.1,0.2l1.5-0.4l0.2,0.4l1.9-0.1l0.3,2.4l1,1.6l2.4,0.8l1.1-0.5l0.8,0.2l0.5-0.5l2.3,0.9l2.3-1.9l0.6,0.3l-2.7,2.7l0.9,0.5l0.5-0.8l0.6-0.1l1.8,0.8l0.2,0.6l-0.9,0.8h-0.6l0,0.8l-2-0.6l-0.5,0.7l0.6,0.4l-0.5,2.1l-1.1,0.4l-0.2,1.2l-1.1,0.6l-0.1,0.8l-0.6,0.2l0.4,1.1l-0.1,0.4l0.4,0.2l-0.1,0.9l0.4,0.8l-0.2,1.3l-0.8,1.4l-4.8-1.2l-2.7,1.8l-1.1-1.3l-1.6,1.4l-0.9,0.1l0.1,0.4l-1.2,0.7l-0.9-0.6l-0.3,0.3L237,185l-1.3,0.7l-0.2,0.7l-1-0.5l0.2,1l-0.4,1.2h-1.1l-0.2-1.2l-2.8-0.8l-0.1-0.5l1.1-2.4l2.5,0l1.2,0.8l1.9-1.3l1.2-2.3l-0.1-0.7l-3.1,0.8l-1.2,2.2h-0.8l-1.1-4.8L229.7,177.1L229.7,177.1z"
    data-comarca="Pla d'Urgell"
    data-capital="Mollerussa"
    data-pais="Catalunya"
    style="fill:#cccccc;stroke:#000000;stroke-width:0.5;"
  />
</svg>