<svg xmlns="http://www.w3.org/2000/svg" viewBox="118 382 41 42">
  <polygon
    id="plana_baixa"
    class="pv"
    points="127.4,392.1 129.9,390.2 130.1,388.8 131.4,387.9 129.6,383.2 130.1,382 131.3,382 138,385.4 138.6,386.6 143.2,385.4 143.6,388 145.8,390 144.1,391.8 147,393.3 147.6,392.8 149,393.8 150.7,394.1 153.1,396.9 158.2,399.5 152.2,405.5 152.3,406 151.5,406.1 140.5,424 134.6,421.3 133.5,421.4 132,419.8 132.2,419 131.7,417.7 127.6,413.7 128.2,411.9 127.9,410.4 130,405.7 128.8,405.3 127.7,405.6 126.9,404.7 122.7,403.5 121.4,401.6 121.8,400.8 120.5,399.5 120.3,398.5 118.3,397.6 118,396.3 118.5,396 119.8,396.3 123.8,390.5 124.8,391.1 125.4,390.7 126.3,390.9 127.4,392.1 127.4,392.1 "
    data-info="<div>Comarca: Plana Baixa</div><div>Capital: Borriana</div><div>País Valencià</div>"
    style="fill:#cccccc;stroke:#000000;stroke-width:0.5;"
  />
</svg>