<svg xmlns="http://www.w3.org/2000/svg" viewBox="143 334 42 66">
  <polygon
    id="plana_alta"
    class="pv"
    points="148.7,371.3 151.7,364.2 150.7,359.7 151.8,355.6 151.3,354.6 152.5,354 152.8,352.4 153.4,351.6 153.6,349.8 154.6,349.4 154.8,348.1 155.8,346.7 156.3,347.1 161.1,346.9 167.1,340.1 168,335.7 169,334.3 169.5,334.4 170.3,335.3 171,337.1 173.1,339 174.2,339 175.7,340 175.6,341.9 176.9,344 175.8,345.5 175.8,346.8 177,348.9 177,350.1 176.3,350.7 176.2,351.6 176.6,352.6 176.5,354.8 174.3,359.4 174.9,359.7 175.9,359.8 177.8,358 179.3,357.9 183.8,360.8 184.5,361.9 179,364.9 173.7,377.3 170.8,380.3 168,381 164.2,383.5 161.5,391.3 160.1,392.9 158.2,399.5 153.1,396.9 150.7,394.1 149,393.8 147.6,392.8 147,393.3 144.1,391.8 145.8,390 143.6,388 143.9,381 144.3,380.7 143,379.5 143,378.6 144.3,376.8 145,376.4 144.7,374.6 145.6,373.9 145.1,372.9 146.2,371.5 148.7,371.3 "
    data-comarca="Plana Alta"
    data-capital="Castelló de la Plana"
    data-pais="País Valencià"
    style="fill:#cccccc;stroke:#000000;stroke-width:0.5;"
  />
</svg>