<svg xmlns="http://www.w3.org/2000/svg" viewBox="121 286 57 49">
  <polygon
    id="ports"
    class="pv"
    points="138.3,290.5 140.1,287.1 144.1,286.7 145,286.9 145,288.9 148.6,292.2 149.8,292.5 152.5,294.3 155,294.4 156.1,295.1 157.4,293.9 160.6,294.2 162,296.2 161.5,297.2 161.7,298.6 160.3,298.4 159.6,298.7 158.3,298.8 158.3,299.4 159.3,300.2 159.1,301 159.7,301.2 160,302.5 161.1,303.5 161.3,304.2 160.8,304.5 168,304.4 171.3,306.3 173,306.2 174.8,307.8 174.8,308.9 176.1,309.2 177.6,311.2 175.4,313.5 173.5,314 170.5,312.6 169.2,312.7 166.9,314.3 166.9,315.3 167.7,316.1 167.6,317.3 165.4,319.9 160.3,319.3 159.8,319.8 160.1,320.5 159.4,321.9 158.4,322.6 158.1,324.5 156.2,327.1 156,328.6 155.2,329.7 155.3,334.7 153,327.4 151.9,326.1 152,325.2 151.1,324.2 150.6,322.5 149.2,322.6 148.5,322.2 147,323 146.4,322.5 143.3,325.6 142.7,326.9 141.8,327.9 138.1,328.2 134.2,327 133.9,326.5 132.6,326.8 131.7,325.7 131.8,324.7 132.2,324.1 131.1,322.5 130,322.9 129.5,321.4 130.4,319 129.9,313.8 130.5,312.2 130.5,310.4 129.8,309 128.3,309.2 127.3,310.3 125.6,309.7 124.9,309 122.7,308.8 121.9,307.6 122.2,305.8 122.9,304.8 121.9,303.1 121.9,302.4 122.9,301.4 126,300.5 127.4,300.7 128.6,302.9 129,302.9 130.5,301.4 131.3,301.3 132.6,300 133.7,299.9 134.7,299 136.2,299.1 136,297.6 136.2,296.8 135.9,295.9 137,291.5 138.3,290.5 138.3,290.5 "
    data-info="<div>Comarca: Ports</div><div>Capital: Morilla</div><div>País Valencià</div>"
    style="fill:#cccccc;stroke:#000000;stroke-width:0.5;"
  />
</svg>