<svg xmlns="http://www.w3.org/2000/svg" viewBox="223 212 32 39">
	<polygon
		id="priorat"
		class="cat"
		points="228.5,219.8 227,222.8 227.4,225.4 226.7,226.2 226.3,227.2 225.9,227.6 226.1,228.8 225.8,229.7 226.2,230.3 226.9,230.3 228,231.2 226,233.2 225.3,233.2 224.4,234.5 223.5,235 225.3,237.2 225.7,239.1 226.6,239.8 227.2,241.7 226.9,242.1 227.7,242.9 228,242.9 229.1,244.6 228.7,245.3 229.8,245.7 230.6,245.6 232.4,246.9 232.6,247.7 233.6,247.9 234.1,246.9 234.5,247.9 238.4,250.3 239.4,249.3 239.8,247.9 239.2,247.6 239.9,246.1 240.4,246.3 241.4,245.9 240.9,244.2 240.1,243.8 240.1,243.2 240.7,243.1 242.2,244.4 244.6,244.4 245.5,243.7 247.4,237.5 247.2,236.3 247.4,235.8 245,235.2 244.9,233.8 248.3,233.3 249,232.5 248,228.3 248.8,227.7 251.1,227.2 253.5,225 254.1,225 253.6,223.3 253.6,221.4 254,220.6 252.6,220.1 251.3,221.3 250.7,220.3 251.1,219.4 250.2,217.5 247.5,216.6 247.2,213.9 243.2,215.2 241.6,213 241.4,212.1 240,212.5 238.9,216.5 238.3,216.8 233.8,215.8 233,216 232.3,217.4 232.2,218.6 228.5,219.8 "
		data-info="<div>Comarca: Priorat</div><div>Capital: Falset</div><div>Catalunya</div>"
		style="fill:#cccccc;stroke:#000000;stroke-width:0.5;"
	/>
</svg>