<svg xmlns="http://www.w3.org/2000/svg" viewBox="192, 39, 41, 97">
	<polygon
		id="ribagorca"
		class="franja"
		points="216,39 217.2,40 221.8,40.9 222.4,41.8 223,42 223.6,43.7 225,44.8 225.6,49 229.7,50.8 230,50.6 232.2,51.1 230.5,58.5 229.6,59.5 230.4,60.8 229.6,60.6 229,60.1 228,61.6 227.8,63.6 229.4,64.5 229,64.7 228.7,65.7 227.2,66.9 225.8,66.2 225.7,67.1 225.1,67.2 224.9,67.3 227.2,74.2 228.6,75.3 229.3,76.6 228.5,77.6 229.5,78.3 230.2,80.4 229.8,81.2 229.4,81.4 229.3,82 228.1,82.4 232.6,84.4 232.3,84.8 231.3,85.2 231.1,85.6 230,86.2 230.4,87.7 232.4,88.2 231.3,89.4 231.5,90 230.4,91.4 229.4,97.4 228.9,98.2 228.6,99.5 227.5,100.9 227.7,101.7 226,107.7 226.2,108.1 227.6,108.8 226.6,109.4 225.9,110.4 226,113.3 226.4,114.2 223.3,124.2 222.4,124.8 221.9,126.5 222.3,128.1 222.7,128 222.9,128.4 222.2,130 221.2,130.6 220.9,132.3 220.5,130.8 218.6,131.5 218.6,132 218,132.6 217.9,134 217.4,135 216.2,134.2 214.7,135.5 214,134.6 212.7,133.8 208.6,133.6 207.4,134.5 206.6,133.9 206.2,134.3 205.6,134.1 205.5,133.7 204.8,133.9 203.6,135 203.7,133.6 204.7,132 204.7,130.8 200.5,125.9 200.4,124.5 198.6,121.5 197.9,122 196.8,121.8 196,122.3 192.8,122.8 192.2,122.3 192.2,121.5 193.4,120.8 193.7,119.3 193,119 193.6,116.8 194.6,115.5 194.9,114 194.5,112.8 195.5,112.1 196.7,112.8 197.6,112.8 200.1,111.2 201.2,111.8 200.8,110.6 200.9,109.6 200,109.7 201.6,107.9 201.4,104.4 200.9,103.5 204.5,103.1 203.8,94.1 205,91.9 203.2,89.7 202.8,87.7 199.7,86.9 198.1,85.1 196.9,85.1 196.3,85.5 195.4,84.8 195.3,83.6 196.4,82.7 197.1,82.8 200.1,79.6 200.2,78.3 201.3,77.5 202,78.7 203.4,78.3 204.3,77 205.5,77 206.7,76.3 208.2,76.7 209.1,74 208,71.2 204.3,70.7 202.8,68.5 201.6,67.7 201,65.8 200.1,64.9 199.3,64.7 199.3,64.1 200.1,63.6 199.4,61.9 199.8,59.9 198.4,57.8 199,57.1 197.9,56.6 197.5,55.9 197.9,55.2 198.2,49.8 199,48.8 200,48.4 199.6,46.8 200.6,45.8 200.8,44.4 200.4,43.2 200.9,42.3 200.7,41.2 202.3,40.6 203.3,40.8 204,39.9 205.2,40 206.4,40.7 208.5,40.8 209.3,39.6 215.3,40.2 216,39 216,39 "
		data-info="<div>Comarca: Ribagorça</div><div>Capital: Benavarri</div><div>Franja de Ponent</div>"
		style="fill:#cccccc;stroke:#000000;stroke-width:0.5;"
	/>
</svg>