<svg xmlns="http://www.w3.org/2000/svg" viewBox="84 463 45 53">
  <polygon
    id="ribera_alta"
    class="pv"
    points="92.9,464.3 86.4,463.5 85.3,465.5 84.6,474.9 87.7,475.1 89.3,476 91.6,480.1 90.2,483 88.7,483.6 87.6,488.7 88.7,489.5 88.9,490.4 87.9,490.9 87.4,491.9 85.8,493.4 85.9,494.2 86.3,494.9 86.2,495.9 92.6,503 93.2,505.4 92.9,506.1 96.5,509.5 97,512.9 99.8,515.1 101.2,514.7 102.2,513.5 102.2,511.7 104.3,510.7 105.8,511.8 107.5,511.6 108.7,510.9 109.7,512.2 110.7,512 112.3,513.5 115.2,513.5 116.7,512.7 120.4,512.7 121.7,510.8 120.8,509.4 121.6,507.9 123.1,507.1 126.2,507.8 127,505.7 128.7,504.1 118.2,492.8 118.1,491.3 119,490.9 121.4,486.1 117.9,485.7 118.1,481.2 116.7,477.8 115.5,478.2 109.4,477.5 107.4,475.7 105.4,475.2 104.1,473.9 105.5,467 101.2,466.8 100.2,466.4 99.8,464.7 98.9,463.8 92.9,464.3 92.9,464.3 "
    data-comarca="Ribera Alta"
    data-capital="Alzira"
    data-pais="Pais Valencia"
    style="fill:#cccccc;stroke:#000000;stroke-width:0.5;"
  />
</svg>