<svg xmlns="http://www.w3.org/2000/svg" viewBox="194 215 51 53">
  <polygon
    id="ribera_d_ebre"
    class="cat"
    points="226.8,266.3 231.6,266.8 232.7,267.7 239.3,266.6 239.1,266 238.1,265.2 235.2,259.6 236,255.9 235.8,255.3 238.6,251.2 239.2,250.9 239.6,251.4 240.9,252.1 242.4,251.4 242.8,250.9 242.6,248.9 242.3,248.5 243.2,247.9 243.8,247.9 243.8,248.8 244.3,249.2 244.6,247.6 241.9,246.6 241.4,245.9 240.4,246.3 239.9,246.1 239.2,247.6 239.8,247.9 239.4,249.3 238.4,250.3 234.5,247.9 234.1,246.9 233.6,247.9 232.6,247.7 232.4,246.9 230.6,245.6 229.8,245.7 228.7,245.3 229.1,244.6 228,242.9 227.7,242.9 226.9,242.1 227.2,241.7 226.6,239.8 225.7,239.1 225.3,237.2 223.5,235 224.4,234.5 225.3,233.2 226,233.2 228,231.2 226.9,230.3 226.2,230.3 225.8,229.7 226.1,228.8 225.9,227.6 226.3,227.2 226.7,226.2 227.4,225.4 227,222.8 228.5,219.8 232.2,218.6 232.3,217.9 230.2,218.1 229.1,218.6 227,218.5 225.8,219.1 224.5,219 223.3,220 221.1,220.7 220.3,221.4 217.2,221 216,219.5 215.6,218 215,218 213.1,216.9 210.3,221.8 208.1,221.5 204.1,215.9 202.5,217.1 201.6,218.5 201.5,223.3 200.6,223.9 196.7,223.5 195.9,225.6 195.9,226.8 195.6,227.8 196.2,229.1 195.5,229.5 195.6,230.3 194.8,232 194.8,232.6 196,231.8 198.3,231.5 198.7,230.9 201.1,229.9 203.7,231.7 204.1,232.7 205.9,232.9 207.5,234.1 208.2,236.9 207.6,237.7 207.8,238.8 207.1,240.4 207.4,241.3 213.3,243.8 211.5,246.3 211.4,247.1 209.8,249.6 207.9,250.8 208.4,251.5 209.7,251 210.7,251.2 210.9,252 212.2,252.5 212.7,253.2 212.7,254.1 213.7,254.8 214.8,256.7 213.7,257.2 213.9,258.1 214.4,258.2 215,258.9 214.9,259.3 215.5,259.7 214.7,260.3 214.5,261.1 215.5,262 216.1,262.2 216,263.1 216.5,263.7 216.4,264.7 217.1,265.1 216.9,266.6 218.2,266.7 218.2,267.3 219.1,267.8 223.2,266.2 224.5,266.3 225.3,265.9 226.3,266.6 226.8,266.3 "
    data-comarca="Ribera d'Ebre"
    data-capital="Mora d'Ebre"
    data-pais="Catalunya"
    style="fill:#cccccc;stroke:#000000;stroke-width:0.5;"
  />
</svg>