<svg xmlns="http://www.w3.org/2000/svg" viewBox="346 70 58 44">
  <path
    id="ripolles"
    class="cat"
    d="M351.7,88.1l-1,0.2l-0.9,0.8l-1.1,0l-2.4-1.6l0.3-1.8l0.6-0.7l1.4,0.1l1.1-0.6l0-1.2l0.9,0.6l2.5-2.2l3.8-0.7l0.7-0.6l0.8,0.5l0.2-0.2l0.3-1.4l2.7-1.4l-0.3-1.3l0.6-0.6l0.5-1.5l3.8-1.9l1.2,0.9l1.9,0.1l4.4-1.7l0.5-1.2l1.9,0.3l2.3,1.5l1.3-0.8l1.8,1.5l1.4,0l0.2,0.2l0.2,0.8l8.3,2l0.1,1.7l0.8,0.9l1.2,0.1l0.4,1l1,0.6l1.2,2.1l0.4,0.2l0.8-0.2l3.1,1l-0.4,1.2l1,2.2l-0.5,2l2,0.1l1.1,0.5l-2.5,0.9l-2-0.3l-0.6-0.8l-0.2-1.8l-0.9,0.3l-1-0.1l0.2,1.7l-2.1,1.2l-1-0.5l-0.5,0.3l-1.8-0.8v0.5l-1.3-0.3l-0.8,0.6l0,0.8l-1.7,0.6l-1.1,1l0.4,1.4l-3.5,1.6l0.4,1.5l1.2,0.3l1.5-0.3l-0.6,1.4l-3.3,0.9l1.4,1.1l0.2,0.8l1.3,1.1v2l-5.2,1.8l-3.7-0.6l1.7,0.8l0.6,0.9l-0.3,1.2l-1.8-0.5l-2.5,1.1l-0.4-0.8l-2.7,0.7l0,1.1l-0.7,0.8l-1.5-0.1l-0.2-1.1l-2.3-0.1l-1.7,0.6l-1.6,2.4l-2.6-1.6v-1.6L360,109l-3,1.3l-1.2-1.1l-0.9,0.1l-0.4-0.8l-1-0.3l-2,0.3l0-0.5l-1.5-2.5l0.1-0.9l-2.2,0.3l-0.3-2.5l4,0.4l-0.8,0.3l0.4,1.1l-0.4,1.1l0.6,1l1.2,0.3l1.1-0.8l0.6-1.1l0.6,0.4l1.8-0.3l0.1-1.4l0.3-0.7l-1.2-0.3l-0.2-1.9l0.3-1.2l-2.4,0.5l-1-1.7l0.8-0.9l0.1-1.9l2.2-3.5L357,91l0.1-0.9l-4.3-2.1L351.7,88.1L351.7,88.1z M352.6,111.5l-1.4,0.3l0.4,1.7l0.4,0.5l0.9-0.5v-1.3l1-0.7l-0.4-0.5l-0.6-0.2L352.6,111.5L352.6,111.5z"
    data-comarca="Ripollès"
    data-capital="Ripoll"
    data-pais="Catalunya"
    style="fill:#cccccc;stroke:#000000;stroke-width:0.5;"
  />
</svg>