<svg xmlns="http://www.w3.org/2000/svg" viewBox="402 7 61 63">
  <polygon
    id="rossello"
    class="nord"
    points="413.3,19 415.5,18.9 416.3,18.5 418.7,18.4 420.4,16.6 421.1,13.4 423.9,10.2 425.8,10.1 427.2,8.6 431.1,7.2 432.7,9.5 434.3,9.8 435.9,11.4 442.4,13.3 439.5,16.3 439.4,17.7 440.3,18 441.5,21.4 442.7,21.8 444.2,21.7 445.4,21.1 446.5,21.3 446.8,20.6 446.1,19.4 446.6,16.6 447,16.3 447.9,16.9 448.1,32 447.8,32.6 450.5,55.2 453.6,56.4 453.3,57.1 455.2,56.9 455.4,57.2 455.4,57.7 456.5,57.9 456.3,58.3 458.2,58.6 457.8,59.7 458.5,60 458.5,60.7 457.9,61.1 457.9,62.1 459.4,62.6 459.3,63 460.3,63.2 460.3,63.9 461.1,64.7 461.1,65.4 461.6,65.9 460.8,66.5 461.9,66.6 462.5,67.1 462.2,68.1 456,68.3 455.5,69.1 455.5,69.5 454,69.7 453,68.6 452.6,68.4 450.4,66.2 449.3,63.5 448.5,63.6 446.8,64.6 444.5,63.5 443.6,64.5 442.4,64.9 440.4,62.9 438.7,64.3 437.3,62.7 433.7,61.8 432.5,62.6 432.3,61.7 428.1,59.3 427.9,58.6 426.4,57 426.7,55.9 425.5,55.9 425,57.2 425.2,58 425.1,59 423.4,59.7 420.1,58.6 420.1,59.9 419.3,60.8 418.2,60.8 417.4,61.2 416.2,61 415.1,61.3 413.7,61.1 413.2,60.4 411.8,59.9 410.8,59.9 408.8,61.8 406.5,62 404.6,60.6 403.1,60.3 402.6,55.9 403.8,52.7 403.8,52.1 404.7,50.8 403.1,39.5 406.4,35.9 407.7,36 408.7,35.4 409.9,35.4 411.4,34.3 412.6,34.2 413.2,32.8 412.7,31.6 412.7,29.5 413.5,28.5 413.4,26.5 412.5,25.8 412.8,25 413.7,24.8 412.3,22.7 412,21.4 409.6,19.6 409.6,18.1 411.6,18.2 413.3,19 413.3,19 "
    data-comarca="Rossello"
    data-capital="Perpinya"
    data-pais="Catalunya Nord"
    style="fill:#cccccc;stroke:#000000;stroke-width:0.5;"
  />
</svg>