<svg xmlns="http://www.w3.org/2000/svg" viewBox="120 501 37 35">
  <polygon
    id="safor"
    class="pv"
    points="139.3,509.5 136.9,503.5 135.7,503.8 131.8,501.2 130.7,501.6 129.6,503.7 128.7,504.1 127,505.7 126.2,507.8 123.1,507.1 121.6,507.9 120.8,509.4 121.7,510.8 120.4,512.7 121.2,514.3 123.5,515.7 126.1,516.2 127.9,517.4 130.1,517.4 128.9,523.4 129.9,523.9 128.6,525.5 129.3,532.4 133,535.2 135,535.3 136.1,535.8 139,535.3 139.4,534.4 141.1,532.8 142.2,532.6 143,531.9 143.7,533.4 143.8,535.1 144.4,535.5 149.1,533.2 150.1,533.5 151,532.5 152.2,532.1 152.7,533.3 154.3,534.3 155.1,535.6 156.6,534.8 156.5,533.7 155.4,532.3 155.2,531.7 144,518.2 144,517.6 143.3,517.3 139.3,509.5 139.3,509.5 "
    data-info="<div>Comarca: Safor</div><div>Capital: Gandia</div><div>País Valencià</div>"
    style="fill:#cccccc;stroke:#000000;stroke-width:0.5;"
  />
</svg>