<svg xmlns="http://www.w3.org/2000/svg" viewBox="271 138 34 49">
	<polygon
		id="segarra"
		class="cat"
		points="282.3,184.4 284.4,185.2 285.6,184.4 286.3,184.8 292.7,185.5 293.3,186.2 295.1,186 295,185.2 294.3,184.9 294,183.7 294.1,183 295.2,182.2 295.3,180.5 294.1,180.8 292.3,179.7 292,179.3 290.7,178.9 291.5,178.5 291.7,178 293.5,177.4 293.5,176.6 293.9,176.2 296.7,176.1 297.5,176.6 298,176.1 299.3,175.8 299.4,174.6 298.7,174.5 297.1,172.7 297,171.5 296.2,171 296.6,169.6 294.7,169.4 294.8,168.5 294,168.3 294.3,167.2 293,167 295.9,163.9 296.9,163.5 296.2,162.8 295.3,162.6 294.7,161.9 295.4,159.4 295.3,158.4 295.7,157.9 296.2,155.9 296.1,155.4 296.6,154.6 301.2,154.6 304.7,151.7 303.2,152.3 302.9,151.4 301.6,150.2 302.6,149.6 304.2,147.2 303.8,145.8 304.1,145.4 303.5,141.4 302,140.9 301.1,141.8 300.2,143.7 298.3,143.1 297.9,142.1 296.5,142.5 296.6,141.1 294.6,139.9 293.9,140.1 292.3,138.4 289.7,139.4 289.2,141.1 288.3,140.8 287.8,142.2 286.6,143.4 286.2,142.8 286.1,140.9 285.3,139.2 283.9,139.5 284,140.2 283.4,141.1 283.6,142.3 282.7,145.3 281,146.9 280.6,147.9 278.3,149.8 278.5,150.8 276.1,153.6 275.2,153.2 274.1,154.9 273.1,155.4 272,156.8 272.4,157.1 271.8,158.2 271.8,159 272.5,159.5 272.6,160.1 271.6,160.5 273,161.2 273,162.2 271.1,166.5 272.2,167 274.7,165.4 275.8,165.9 275.1,166.9 274.3,169.7 273.7,169.9 273.6,171.3 274.1,171.3 274.6,174.2 274,174.5 274.3,176.6 273.9,178.4 272.4,179.1 272,179.7 272.1,180.7 273.1,181.4 276.6,182.4 276.6,183.3 277.3,185 278.4,184.7 279.6,185 280.1,184.5 280.8,184.5 281.1,185 282.3,184.4 "
		data-info="<div>Comarca: Segarra</div><div>Capital: Cervera</div><div>Catalunya</div>"
		style="fill:#cccccc;stroke:#000000;stroke-width:0.5;"
	/>
</svg>