<svg xmlns="http://www.w3.org/2000/svg" viewBox="190 149 48 75">
  <polygon
    id="segria"
    class="cat"
    points="190.8,171.6 194.7,167 194.8,165.6 195,165.6 196.1,163.6 197.3,164.8 197.5,161.5 203.9,160.7 204.4,160.1 204.9,157.4 206.2,155.4 207.3,155 207.7,154 209,153.2 211.5,153.3 212.4,151.5 212.3,150.4 212.9,149 215,149.3 214.9,152.6 223.4,164.8 223.2,165.6 225.5,167.8 226.3,169.5 227.1,168.9 227.5,169.4 228.2,168.5 229.1,168.9 230.2,167.7 230.5,166.9 232.5,169.4 233.1,171.3 232.8,173 230.3,173.6 230.4,174.7 229.7,177.1 231.6,177.9 232.8,182.7 233.5,182.7 234.7,180.5 237.8,179.7 237.9,180.4 236.6,182.7 234.7,184 233.5,183.2 231.1,183.1 230,185.5 230.1,186 232.9,186.8 233.1,188.1 232.4,188.1 232.2,189.2 232.7,189.7 231.2,190.4 229.7,191.9 227.9,191.1 226.5,194.4 226.9,195.7 226.4,197.4 224.4,197.1 223.7,198 223.6,200 221.5,200.2 220.5,201.1 219.8,200.8 219.5,203.6 220.1,204.9 220.2,206.4 219.6,208 216.2,210.5 216.2,212.6 215.8,213.3 216.2,214.3 215.6,218 215,218 213.1,216.9 210.3,221.8 208.1,221.5 204.1,215.9 202.5,217.1 201.6,218.5 201.5,223.3 200.6,223.9 196.9,223.5 194.9,220.3 195,218.5 193,217.1 193.9,215.3 194.7,215.1 195.4,214.1 194.2,211.4 190.2,208.3 193,204.2 193.1,203.2 192.5,202.8 193.6,201.1 193.6,200.7 192.6,200 192.6,198.8 192.1,197.9 192.1,196.5 196.5,196.5 197.5,196.1 202.4,189.2 202.4,188.8 200.8,186.4 201.1,185.8 200.7,184.8 201.4,183.8 200.6,181.4 198.1,182.6 192.9,181.9 192.6,179.3 192.8,178.8 193.7,177.8 191.5,174 190.7,173.9 190.8,171.6 "
    data-info="<div>Comarca: Segrià</div><div>Capital: Lleida</div><div>Catalunya</div>"
    style="fill:#cccccc;stroke:#000000;stroke-width:0.5;"
  />
</svg>