<svg xmlns="http://www.w3.org/2000/svg" viewBox="283 101 43 60">
  <path
    id="solsones"
    class="cat"
    d="M317.1,114l4.5,0l-0.3,0.6v0.4l-2.7-0.1L317.1,114L317.1,114z M284,132.5l-0.9,1.6l0.2,0.7l1.8,0.6l0.4,0.8l-1.6,3.3l1.4-0.3l0.8,1.7l0.1,2l0.4,0.6l1.2-1.3l0.5-1.3l1,0.3l0.4-1.7l2.7-1.1l1.6,1.7l0.6-0.2l2.1,1.3l-0.1,1.3l1.4-0.3l0.3,1l2,0.6l0.8-1.9l1-0.9l1.4,0.5l0.6,4l-0.3,0.4l0.4,1.4l-1.6,2.5l-1,0.6l1.3,1.2l0.3,0.9l1.5-0.6l-3.5,2.9l0,2.6l-0.9,0.8l0.8,0.6l0.7-0.5l0.5,0.3l0.4-0.8l-0.3-1.7l1.9,0.3l0.7,2.1l0.6,0l1.5,1.1l-0.4,0.8l0.4,0.6l0.6-0.6l0.7,0l0.5-1.6l1-0.4v-0.8l1.4-0.4l0.7,0.7l1-0.2v-0.6l0.7-1l-1-1.9l0.3-0.9l1.6-1l0.4-1.6l-0.4-0.7l1.3-0.5l0.5-0.9l-0.4-0.4l0.4-1l-1.2-2.8l-1.8-0.5l-1.6,1.4l-1.4-0.9l0.7-1.2l0.8-0.4l0.1,0.6l1.3-2l1.3-0.2l2.4-3h1.3l-1-1.8l0.6-0.5l-0.4-0.9l0.4-0.6l-0.2-1.2l0.5-1.7l0.6,0l0.7-0.8l0.9,0.5l-0.3,1.5l1.3,0.1l3.3-2.3l-0.4-2l-0.8-0.3l0-0.4l-0.9-1.1l-0.6,1.2l0.8,1.8l-0.6,0.7l-1.1-0.9l-1.8,0.1l0.4-1.6l-0.4-0.5l-1,2l-0.5-0.8l0.5-2.2l0.7-0.8v1.4l1-0.4l1.4-1.5h0.9l-0.2-0.9l0.1-0.5l-0.4-0.9l-0.7-0.5l-0.6,1.3l-0.6-0.4l0.3-2.3l1.3-2.1l0.2-1.6l1.7,0.5l1.3-1l0-1.1l-1.6-0.6l0.4-0.5l0.2-1.4l-1.4-1.1l0-0.6l1.4-2.8l0.8,0.4l1.5-1.5l-0.2-1.2l0.2-0.8l-0.7-0.5l-0.4,0.9l0,0.9l-1,0.2l-0.8,0.6l-0.4-0.7l-2-1l-0.4,0.8l-1-0.3l0,0.9l-0.6,0.1l-1.1-0.7l0.4-0.2l-1.4-2.6l0-0.6l-9.3-1.4l-1.7,0.6l0.1,1.5l-0.6,0.4l-0.2,0.6l-6.6,5l-1.3-0.7l-0.4-0.9l-1.4,0.1l-1.6,1.1l-2.1-0.4l-1.9,0.7l0.1,0.7l0.6,0.4l-0.4,1.3l-1,0.3l-0.3,0.5l-1.9,1.4l-0.3,2.5l1,2.1l1.4,0.5l0.8-0.4l0.4,0.3l-0.2,3.8l0.4,0.9l-0.3,2l0.8,2.3l-1.4,1.2h-0.5l-1.8,0.7l-1.3-0.6l0.5,1.5l-1-0.6l-0.5,0.5L284,132.5L284,132.5z M323.5,142.8l0.9,0.2l0.2,0.6l0.8-1.4l-0.6-0.6l-0.4,0.5l-0.2-0.4h-0.7V142.8L323.5,142.8z"
    data-comarca="Solsonès"
    data-capital="Solsona"
    data-pais="Catalunya"
    style="fill:#cccccc;stroke:#000000;stroke-width:0.5;"
  />
</svg>