<svg xmlns="http://www.w3.org/2000/svg" viewBox="266 225 40 27">
  <polygon
    id="tarragones"
    class="cat"
    points="281.8,243.8 282.5,243.3 283.1,243.6 283.3,242.9 287.7,241.5 290.3,241.8 290.7,241.5 291.6,241.6 294.1,240.6 294.8,240.9 305.2,235.5 304.1,234.2 303,230.9 299.3,231.8 298.2,230.7 296.4,230.6 295.3,231.5 294.7,229.5 295.5,229.4 296,228.9 296.2,227.3 292.3,226.5 292.2,225.7 291.2,225.3 290.6,226.5 290.7,227.2 290.4,227.5 289.3,227.5 289.8,228.3 290.8,228.9 290.8,229.4 290.2,229.6 289.7,230.3 289.4,229.8 288.4,229.9 285.4,227.3 283.9,228.1 283.5,227.8 282.6,228.2 282,229.6 280.5,229.3 280.3,229.7 281.8,231.7 281.8,232.4 280.5,231.8 279.4,232 279.2,230.9 279.5,230.3 278.8,230.1 278.6,230.7 278,230.5 276.4,228.9 275.7,229.4 275,228.6 274.2,229.4 273.3,229.4 274.2,230.1 273.9,230.8 274.2,231.2 273.8,232.7 272.3,235 271.8,235.3 271.5,235.9 270.9,236.4 272.5,238.8 273.9,239.6 274.3,240.5 275.7,241.3 275.3,241.7 273.8,241.4 273.7,240.6 273.1,240.5 272.9,241.3 273.8,242.5 273.3,243.3 273.9,244.2 272.9,244.2 271.7,242.7 268.8,241.6 268.4,242.6 268.8,242.8 269.3,244.5 268.9,245.3 266.8,243.8 266,244.6 266.1,245.9 267.1,247.8 268.1,248.6 268.4,249.2 270.2,248.9 272.5,250.2 272.8,251.1 273.9,251.1 274.6,250.2 274.5,249.3 275.5,246.9 277,245.5 277.5,246.2 277.9,245.8 277.7,245.2 278.9,244.6 279.2,245 280,244.8 279.9,244.2 280.7,243.7 281,244.1 280.7,244.9 279.5,245.7 279,245.7 278.6,246.2 278.8,246.4 278.2,247.4 278.4,247.4 281.4,244.7 281.8,243.8 "
    data-comarca="Tarragones"
    data-capital="Tarragona"
    data-pais="Catalunya"
    style="fill:#cccccc;stroke:#000000;stroke-width:0.5;"
  />
</svg>