<svg xmlns="http://www.w3.org/2000/svg" viewBox="178 228 37 55">
	<polygon
		id="terra_alta"
		class="cat"
		points="207.4,241.3 213.3,243.8 211.5,246.3 211.4,247.1 209.8,249.6 207.9,250.8 208.4,251.5 209.7,251 210.7,251.2 210.9,252 212.2,252.5 212.7,253.2 212.7,254.1 213.7,254.8 214.8,256.7 209.2,259.7 208.6,260.5 207.9,260.8 206.4,262.4 205.5,262 204.9,262.2 203.7,262.1 202.9,263.7 201.9,264.3 199.7,264.5 198.4,265.3 197.4,265.4 196.7,266.5 195.7,266.5 195.7,267.4 195.1,268.2 194.9,272.5 195.4,273.4 194.8,274.3 194.6,274.9 191.5,279.3 189.8,279.9 188,282.9 186,282.7 186.2,282.5 186.4,282.5 186.6,282.3 185,280.5 183.9,277.1 184.2,276.1 184.2,275.5 183.8,274.9 182.6,274.2 182.8,274 183.4,273.8 183.4,273.2 183.7,272.8 183.7,271.9 184.1,271.6 183.7,271.1 183.7,270.9 183.8,270.7 184.2,270.7 184.2,269.3 184.9,268.6 185.3,268.5 186,267.5 185.8,266.6 186.4,265.8 186.7,265.6 187.1,264.8 187.1,263.9 187.3,263.8 187.8,263 187.8,262.9 187.4,262.7 186.8,262.7 186.6,260.8 185.5,259.7 185.5,259.3 185.7,258.9 186.1,258.7 185.7,257.9 185.1,258 184.7,257.8 184.5,257.2 184.7,257 185.1,256.8 185.8,256.8 186.2,256.9 186.6,256.8 186.6,256.6 185.6,256 185.2,256 183.6,254.7 183.4,254.2 183.2,254 183,254 183.1,254.8 182.9,255 181.9,254.8 181.7,254.6 181.7,254.4 182.1,253.6 182.1,253.5 181.9,253.3 181.7,253.3 180.9,253.9 180.5,253.9 180.5,253.3 181.4,252.5 181.4,251.9 180.8,251.6 180.4,250.8 180.8,250.2 180.8,249.6 180.4,249.5 180.4,249.3 180.6,249.3 180.9,249.1 180.9,248.9 180.7,248.5 180.1,248.3 179,248.6 178.8,248.2 178.7,245.7 179.3,245.5 179.6,244.1 178.8,243.4 178.8,243 180.3,242.5 180.5,242.3 180.5,242.2 179.9,241.8 180.7,241.8 182.6,242.6 183.2,242.6 183.6,242.2 183.7,241.8 183.7,241.3 184.1,240.9 184.1,240.5 183.9,240.1 183.9,239.9 185.6,240 187.3,238.8 187.7,238.8 187.7,238.6 188.2,238.4 188.6,238.6 190.3,230.8 190.7,230.4 190.6,230.2 191.4,230.6 192,230.2 192.1,229.6 192.4,229.6 193.9,230.1 194.3,230.1 194.7,229.9 194.8,228.5 196,228.7 196.2,229.1 195.5,229.5 195.6,230.3 194.8,232 194.8,232.6 196,231.8 198.3,231.5 198.7,230.9 201.1,229.9 203.7,231.7 204.1,232.7 205.9,232.9 207.5,234.1 208.2,236.9 207.6,237.7 207.8,238.8 207.1,240.4 207.4,241.3 "
		data-info="<div>Comarca: Terra Alta</div><div>Capital: Gandesa</div><div>Catalunya</div>"
		style="fill:#cccccc;stroke:#000000;stroke-width:0.5;"
	/>
</svg>