<svg xmlns="http://www.w3.org/2000/svg" viewBox="251 147 27 52">
  <path
    id="urgell"
    class="cat"
    d="M259.3,147.8l0.6-0.2l1.1,0.2v0.6l0.5,0.7l0.4,1.6l-1.3-0.1l-0.1,0.9l-1.5,0.6l-0.6,0.8l-1-1.4l0.4-1.1l-0.3-0.4v-1.3l0.6-0.6l0.8,0.5l0.5-0.2L259.3,147.8L259.3,147.8z M255.9,169.4l0.9,0.5l0.5-0.8l0.6-0.1l1.8,0.8l0.2,0.6l-0.9,0.8h-0.6l0,0.8l-2-0.6l-0.5,0.7l0.6,0.4l-0.5,2.1l-1.1,0.4l-0.2,1.2l-1.1,0.6l-0.1,0.8l-0.6,0.2l0.4,1.1l-0.1,0.4l0.4,0.2l-0.1,0.9l0.4,0.8l-0.2,1.3l-0.8,1.4v0.9l-0.4,0.7l2.6,2.4l-0.4,0.5l0.5,1.1l-0.8,2.4l2.9,0.6l0.5,0.9l2.1,0.1l6.6,3.7l0.4,1l2-0.8l0.2-0.4l2.4-0.5l1.5-1l0.8,0l-0.2-1.9l-0.9-0.6l-0.2-1.3l0.4-0.1l0.3-1.5l-0.7-0.4l1-0.4l-0.6-0.7l3.8-0.9l1-2.7l-0.7-1.7l0-0.9l-3.5-1l-0.9-0.7l-0.2-1l0.5-0.6l1.4-0.7l0.4-1.7l-0.3-2.1l0.6-0.3l-0.5-2.9l-0.5,0l0.1-1.4l0.6-0.2l0.8-2.8l0.7-1l-1.2-0.5l-2.4,1.6l-1.2-0.5l2-4.3l0-0.9l-1.4-0.7l1-0.4l-0.1-0.5l-0.6-0.5l0-0.8l0.7-1.1l-0.4-0.3l-0.8,0.6l-1.9-0.6l-0.5-2l1.3-1.4l0.2-1.1l-1.3,0.5l-0.9,1.7l-2.9-0.8l-0.1-0.9l0.3-1.2l0.9,0.7l0.9-0.9l-0.1-2.7l-1.4-0.3l-1-0.7l-2.2,4.5l0.6,0.1l-4.4,7.1l-1.2-1l-0.8,0.1l-0.5,0.7l-2.1,0l-3.1,3.5l0.6,1.6l1.1-0.3l0.2,0.4l0.7-0.1l0,2.3l-0.5,0.9l2.3,0.9l2.3-1.9l0.6,0.3L255.9,169.4L255.9,169.4z M261.2,170.5l0.5,0.2l3.8-2.8l-0.2-0.4l-1.4,0.7l-0.3-0.3L261.2,170.5L261.2,170.5z"
    data-comarca="Urgell"
    data-capital="Tàrrega"
    data-pais="Catalunya"
    style="fill:#cccccc;stroke:#000000;stroke-width:0.5;"
  />
</svg>