<svg xmlns="http://www.w3.org/2000/svg" viewBox="48 574 46 39">
	<polygon
		id="valls_de_vinalopo"
		class="pv"
		points="79.7,578.2 81.9,576.6 83.3,574.6 92.5,580.5 93.2,582.9 91.1,586.1 87.9,587.3 86.4,587.1 84.8,588.8 84.9,594.5 83.7,596.4 84.6,599.2 80.8,598.8 76.2,600.2 74.4,599.4 70.7,600.8 72,601.9 72.5,602.8 74.3,604 75.1,605.8 75.3,608.2 71.5,609.1 68.4,611.4 67.6,610.8 66.3,612.1 63.7,612.7 61.5,612 62.9,608.9 60.6,603.1 58.9,604.1 49.1,600.7 49.1,590.2 49.8,589.6 48.5,588.8 56.6,581.4 59.4,580.3 63.1,583.6 64.7,583.5 67.1,584.6 70.8,584.5 77.5,590 80.1,589.2 80.1,586.3 79.3,585 79.8,584.3 79.2,582.9 79.7,581.7 78.5,581.1 77.7,579.9 79.7,578.2 79.7,578.2 "
		data-info="<div>Comarca: Valls de Vinalopó</div><div>Capital: Novelda</div><div>País Valencià</div>"
		style="fill:#cccccc;stroke:#000000;stroke-width:0.5;"
	/>
</svg>