<svg xmlns="http://www.w3.org/2000/svg" viewBox="72 514 59 44">
  <polygon
    id="vall_d_albaida"
    class="pv"
    points="74.8,550.7 74.8,549.9 72.5,546.5 92.9,534.5 93.5,532.8 94.9,532.4 96.5,531 97.2,529.5 98.1,529.4 103.4,524.4 105.7,523.5 106.8,523.4 108.5,522 109.3,522.2 109.9,521.3 111.2,521.2 116.8,518.8 118.6,518.8 121.2,514.3 123.5,515.7 126.1,516.2 127.9,517.4 130.1,517.4 128.9,523.4 129.9,523.9 128.6,525.5 129.3,532.4 128.1,532.6 126.8,534.6 124,535 123.2,536.5 121.1,538.1 118.6,537.9 118.2,538.5 111.2,542.4 105.7,541.4 98.9,543.9 100.1,546.4 102.5,548.6 105.7,547.2 107,548.4 108.1,548.7 108.1,550.2 105.5,551.1 103.2,553.6 100.4,554.4 96.7,557.2 95.7,556.9 94.2,555 94.2,551.9 92.2,551.4 91,551.8 89.7,550.3 87.8,551.2 86.9,549.2 85.6,548.8 84.8,548 83.9,548 82.2,549.1 80.1,549.3 78.3,550.9 76.8,550.5 75.1,551.3 74.8,550.7 74.8,550.7 "
    data-comarca="Vall d'Albaida"
    data-capital="Ontinyent"
    data-pais="Pais Valencia"
    style="fill:#cccccc;stroke:#000000;stroke-width:0.5;"
  />
</svg>