<svg xmlns="http://www.w3.org/2000/svg" viewBox="31 472 48 54">
  <polygon
    id="vall_de_cofrents_aiora"
    class="pv"
    points="58.6,522.9 62.7,524 68.3,520.2 70.8,515.1 68.6,507.6 69,506.7 68.1,505.2 68.3,504.4 67.3,502.3 67.6,501.5 67.2,500.2 67.6,497.7 67,497.2 67.7,496.3 69.3,495.8 70.3,495 74.4,494.7 72.2,491.4 71.5,487.7 74.3,486.9 78.5,482.5 77.4,481.5 76.2,481.8 75.2,481.1 75.2,480.5 73.7,480 73.9,481.1 72.7,481.3 72.4,481.7 71,481.2 70.1,481.6 69.1,476.9 59.5,472.8 53.6,475.9 49.9,476.3 50.2,478.4 47.5,480 46.8,481 41.4,482.2 39.4,493.6 36,496.7 34.9,501.3 33.3,502.5 33,505.4 32.1,506.6 31.9,509.9 32.8,511.1 35.8,513 43.9,525.4 56.9,524.7 58.6,522.9 58.6,522.9 "
    data-comarca="Vall de Cofrents-Aiora"
    data-capital="Aiora"
    data-pais="País Valencià"
    style="fill:#cccccc;stroke:#000000;stroke-width:0.5;"
  />
</svg>