<svg xmlns="http://www.w3.org/2000/svg" viewBox="339, 163, 36, 40">
	<polygon
		id="valles_occidental"
		class="cat"
		points="371.7,190.7 371.4,189.8 372.3,189.8 373.2,187.9 371.1,183.2 371.5,183 371.8,182.1 372.5,182 372.4,181.2 370.9,178.1 370.4,178.5 368.6,178.8 368,176.2 365.8,174 363.6,173 362.8,171.9 362.1,171.4 362.6,170.8 364.1,170.2 365.4,170.1 365.3,168.5 365.9,167 365.1,164.2 364.4,164.5 363.1,163.9 362.1,164.5 361.8,165.1 360.8,165.3 355.9,164.4 354.5,165.5 354.2,167.1 353.5,167.5 353.7,168.8 353.1,169.4 353.6,171.4 353,172.2 351.7,172.4 351,173.2 349.8,173.2 348.9,173.6 347.7,173.5 346.9,172.9 346.8,171.9 346,171.3 345.7,172 344.7,171.1 343.3,171.6 341.8,173.4 342.4,177.1 341.7,177.7 340.3,178.2 339.6,177.4 339.4,180.8 340.1,181.1 340.7,180.9 342.2,181.9 341.7,182.4 344,183.2 345,183.2 345.4,184.6 345.2,185.1 346.9,188.3 347.4,188.8 348.3,189 348.3,190.8 347.1,191.2 345.9,193 345.5,193.2 346,194 346.7,194.5 347,195.6 348,196.6 348.5,196 348.5,196.9 349.7,197.5 350.3,197.1 352.7,200.3 353.2,197.5 354.6,197.5 355.5,198 355.7,198.6 356.3,199.1 356.5,199.7 357.6,199.3 359.4,199.4 359.1,200.6 359.5,201.1 359.9,201.3 360.6,202.9 361.1,203 360.9,202.6 361,201.8 360.5,201.5 360.6,201.1 360.2,200.3 362.1,201.2 362.7,200.6 364.7,201.5 365.6,200.8 366,199.2 366.3,198.8 368.1,198.7 369.2,197.9 369.6,196.9 370.3,196.5 370.6,195.9 371.4,195.9 372.5,195.1 372.9,195.5 373.7,195.4 374.3,194.8 373.9,194.1 374,193.3 375,192.7 374.7,192.2 372.7,191.4 372.5,191.7 371.7,190.7 "
		data-info="<div>Comarca: Vallès Occidental</div><div>Capital: Sabadell</div><div>Catalunya</div>"
		style="fill:#cccccc;stroke:#000000;stroke-width:0.5;"
	/>
</svg>