<svg xmlns="http://www.w3.org/2000/svg" viewBox="362 151 50 42">
  <polygon
    id="valles_oriental"
    class="cat"
    points="377.2,160.9 377.4,159.7 376.3,159.2 376.1,158.5 376.6,157.3 376.1,156.5 376.1,155.6 377.9,152.4 378.2,153.4 380.1,154.2 380.2,153.8 381.3,153.1 383.7,154.4 384.6,157.2 385.7,157.3 387.5,156.4 387.6,154.5 387.2,153.7 387.9,153.2 389,151.4 390,152.1 393.7,151.8 394.8,152.7 395.1,153.8 396.3,154.4 397.7,153.9 397.4,155.1 400,156.7 402.1,157.1 402.4,157.8 402,158.3 402.4,158.8 402.4,159.1 403.8,160.5 403.6,161.1 404,162 405.4,162.5 410.1,161.2 410.3,162.7 409.4,164.8 410.1,166.7 410.5,166.9 411.3,168 410.4,168.8 410.1,170 405.9,170.2 405.4,170.7 404.6,172.5 404.3,172.9 404,174 401.3,175 400.4,175 399.8,173.9 399.2,174.3 398.5,174 396.3,174.4 395.6,174.2 394.7,174.5 393.7,174.3 391.4,177.2 390.9,177.4 389.8,178.7 389.1,178.9 385.6,183.4 385.4,185.8 383.8,187.2 385.1,187.7 384.5,189.3 383.6,189.1 382.9,189.6 380.3,189.7 379.3,190.2 378.9,191 378.4,191 377.7,192.7 377.1,193 375,192.7 374.7,192.2 372.7,191.4 372.5,191.7 371.4,189.8 372.3,189.8 373.2,187.9 371.1,183.2 371.5,183 371.8,182.1 372.5,182 372.4,181.2 370.9,178.1 370.4,178.5 368.6,178.8 368,176.2 365.8,174 363.6,173 362.8,171.9 362.1,171.4 362.6,170.8 364.1,170.2 365.4,170.1 365.3,168.5 365.9,167 365.1,164.2 368.7,164.4 370.6,163.8 371.2,164.3 371.6,165.3 373,164.7 373.3,165.3 375.4,164.6 375.9,165 376.1,164.4 375.8,163.2 376.1,161.9 377.3,161.9 377.7,161.4 377.2,160.9 "
    data-comarca="Valles Oriental"
    data-capital="Granollers"
    data-pais="Catalunya"
    style="fill:#cccccc;stroke:#000000;stroke-width:0.5;"
  />
</svg>