<svg xmlns="http://www.w3.org/2000/svg" viewBox="380 55 59 29">
  <polygon
    id="vallespir"
    class="nord"
    points="380.5,72.4 386.3,70.1 392.1,64.6 393.1,64.2 394,63 394.6,63 395.1,62.2 397.1,61.8 399.5,62.3 401.3,61.5 402.3,60.4 404.6,60.6 406.5,62 408.8,61.8 410.8,59.9 411.8,59.9 413.2,60.4 413.7,61.1 415.1,61.3 416.2,61 417.4,61.2 418.2,60.8 419.3,60.8 420.1,59.9 420.1,58.6 423.4,59.7 425.1,59 425.2,58 425,57.2 425.5,55.9 426.7,55.9 426.4,57 427.9,58.6 428.1,59.3 432.3,61.7 432.5,62.6 433.7,61.8 437.3,62.7 438.7,64.3 438.2,65.9 437.5,66.3 434.2,65.6 433,64.9 432.5,65.5 432.3,66.7 430.2,66.2 429.6,66.9 429.5,68.1 428.9,68.9 428.1,68.7 427.2,69.9 427,69.7 426.3,71.5 425,71.7 424.4,72.3 423.8,72.6 422.5,71.1 419.2,71.2 416.2,73.4 415.2,73.4 414.3,74.1 414.3,76 413.8,76.2 412.6,75.9 413.5,77.7 413.5,78.1 413.9,79.1 414.7,79.4 414.9,81.7 411.5,81.7 410.9,81.3 408.8,81.4 406.6,80.5 406.6,80.1 405.5,80 403.6,80.6 402.3,83.4 400.6,83.4 397.5,82.4 396.7,82.6 396.3,82.4 395.1,80.4 394.1,79.8 393.7,78.8 392.5,78.7 391.7,77.8 391.6,76 384.5,74.8 383.3,74.1 383.1,73.3 382.9,73.1 381.5,73.1 380.5,72.4 380.5,72.4 "
    data-info="<div>Comarca: Vallespir</div><div>Capital: Ceret</div><div>Catalunya Nord</div>"
    style="fill:#cccccc;stroke:#000000;stroke-width:0.5;"
  />
</svg>