<svg xmlns="http://www.w3.org/2000/svg" viewBox="379 17 35 24">
  <polygon
    id="catno_f75a3bed3a1"
    class="catno"
    points="382.5,33.6 383.2,33.4 383.4,32.3 382.6,28.3 381.7,27 381.8,24.1 380.6,23.8 380.5,21.1 379.5,20.7 380,19.3 385.3,17.7 393.1,18.7 396.8,17 398.1,17.8 409.6,18.1 409.6,19.6 412,21.4 412.3,22.7 413.7,24.8 412.8,25 412.5,25.8 413.4,26.5 413.5,28.5 412.7,29.5 412.7,31.6 413.2,32.8 412.6,34.2 411.4,34.3 409.9,35.4 408.7,35.4 407.7,36 406.4,35.9 403.1,39.5 398,36 396.4,37.2 395.8,38.3 393.5,40.2 392.8,39.9 392,38.9 391.1,38.7 390.3,39.2 388.6,39.1 387.8,38.6 385.5,38.4 385.3,37.7 384,36.5 383.4,36.7 381.9,36 380.2,35.9 382.5,33.6 382.5,33.6 "
    data-comarca=""
    data-capital=""
    data-pais=""
    style="fill:#cccccc;stroke:#000000;stroke-width:0.5;"
  />
</svg>