<svg xmlns="http://www.w3.org/2000/svg" viewBox="53 603 41 63">
  <polygon
    id="catno_15524d2c05"
    class="catno"
    points="93.3,645.3 92.6,644.2 92.9,641.9 91.5,641.3 90.5,639.8 88.6,639.5 88.5,630.7 89.5,630.6 91.5,631.4 92.7,631.3 92,627.3 86.5,628.1 79.3,622.9 76.2,625.2 74.8,625.5 74,625.1 75.8,624.3 74.6,619.9 67.6,610.8 66.3,612.1 63.7,612.7 61.5,612 62.9,608.9 60.6,603.1 58.9,604.1 60.9,611.7 56.6,624.1 53.5,627.7 74.9,663.2 79.9,665.8 81.4,665.4 82.8,658.7 84.4,657.1 85.4,657.2 85.8,656.8 85.6,655.8 86.1,654.1 87.2,653.2 87.4,651.1 89.5,649 90.5,649.1 92.5,647.9 92.4,646.5 93.3,645.3 93.3,645.3 "
    data-comarca=""
    data-capital=""
    data-pais=""
    style="fill:#cccccc;stroke:#000000;stroke-width:0.5;"
  />
</svg>