<svg xmlns="http://www.w3.org/2000/svg" viewBox="6, 408, 64, 75">
	<polygon
		id="catno_Pbc6NWFf6pA3sUzzf3NEQH"
		class="catno"
		points="69.9,443.7 69.1,441.6 66.1,439.4 65.9,438 63.4,435.3 61.2,436.1 58,441.1 52.9,437.3 50.6,436.8 43.7,430.5 43,428.8 42.9,419.7 44.6,416.7 40.1,411 39.6,409.2 38.9,408.9 32.5,421.2 33.5,426.3 31.4,429 28.9,429.6 22.9,427.2 18.1,431.4 13.1,442 9.4,443.2 9.4,444.3 7.8,444.8 8.7,445.5 9.1,445.6 9,446.3 9.5,447.2 8.9,447.6 9,448.7 9.3,449.4 8.7,450 9.5,451.4 8.2,453.7 9,454.1 8.1,454.9 7.9,456.9 6.8,456.9 6.7,457.8 7.4,458.1 6.9,458.8 7.5,459.3 7.4,460.3 7.6,460.5 8.3,460.1 9.3,460.5 8.8,461.9 9.3,462.1 10.9,461.4 10.3,462.6 10.4,464.2 11.7,463.4 12.2,464.3 11.8,465.1 12.2,465.7 13.4,464.4 13.8,465.3 13.3,466.2 12.7,466.3 12.9,466.9 14,467 14.2,468.4 13.7,469.3 14.6,469.3 15,467.9 16.3,467.4 16.3,469 16.9,468.2 16.9,466.9 18.2,467.2 18.1,468.2 19.4,467.7 19.3,468.3 18.5,468.8 18.7,469.2 20.6,468.8 21,470.2 22.3,470.2 23.6,472 25.6,473 26.2,472.2 26.8,472.4 27.9,472.1 28.8,472.8 29.3,473.6 30.4,473.2 30.6,473.7 31.6,473.3 33.9,474.4 34.6,474.3 36,475.2 37.3,475.3 38.1,474.3 39.2,475.7 41.8,475.9 42.7,476.8 41.4,482.2 46.8,481 47.5,480 50.2,478.4 49.9,476.3 53.6,475.9 59.5,472.8 60.8,473.2 61.3,445.3 66.1,446.3 65.9,445.3 69.9,443.7 69.9,443.7 "
		data-info="<div>Territori de parla no catalana</div>"
		style="fill:#cccccc;stroke:#000000;stroke-width:0.5;"
	/>
</svg>