<svg xmlns="http://www.w3.org/2000/svg" viewBox="219 18 39 36">
  <polygon
    id="catno_04b007b5"
    class="catno"
    points="223.3,19.7 224.1,19.6 226,18.8 228.3,19.5 228.7,20.4 233.2,21.8 235.3,21.3 237.8,22.8 240.3,23.1 241.6,24.6 242.4,24.6 247.7,28 247.9,27.2 250.1,25.9 251.7,26.9 252.3,28 252.9,28.2 254.4,27.6 256.5,28.3 257.5,28.1 256.6,35.2 256.1,36 256.7,37.7 255.2,38 254.6,37.6 253.7,38.8 252.3,39.4 251.7,40.5 252.8,41.5 250.2,49.4 250.6,50.2 251.2,50.2 250.9,51.8 249.7,52.3 249.7,53 248.8,53.8 246.3,52.9 245.5,51.4 244.1,50.9 244.1,50.3 244.4,49.4 242.5,48.2 242.1,49 240.4,49.6 239.5,50.8 237.6,51.9 237.2,50.7 235.8,50 232.2,51.1 230,50.6 229.7,50.8 225.6,49 225,44.8 223.6,43.7 223,42 222.4,41.8 221.8,40.9 222.7,41 223.2,40.6 223.3,39.3 223.8,38.6 223,37 223.6,36.6 221.9,34.2 221.9,33.2 221.3,32.8 219.6,32.7 222.2,30.1 220.4,29 221.5,27.3 222.6,26.4 222.2,24.5 222.3,23.4 221.9,23 221.5,21.9 223,20.9 223.3,19.7 "
    data-info="<div>Territori de parla no catalana</div>"
    style="fill:#cccccc;stroke:#000000;stroke-width:0.5;"
  />
</svg>