<svg xmlns="http://www.w3.org/2000/svg" viewBox="93 354 39 43">
  <polygon
    id="catno_25d24585"
    class="catno"
    points="96.3,379 95.1,379.5 93.6,381.3 97.5,381.9 99.7,384.4 101.5,385.2 101.7,386.2 110.6,387.2 111.7,388.9 112.7,389.4 113,390.5 114.6,392 114.8,393 118.5,396 119.8,396.3 123.8,390.5 124.8,391.1 125.4,390.7 126.3,390.9 127.4,392.1 129.9,390.2 130.1,388.8 131.4,387.9 129.6,383.2 130.1,382 129.9,381 128.6,380.3 127.3,378.5 127.6,375.3 125.6,370.6 123.5,369.2 123.4,366.5 123.9,365.3 127.6,363.3 127.6,361.1 122.6,357.5 121,354.5 113.8,357.9 112.6,357.3 110.2,358.6 109.5,358.1 108.4,358.2 105.5,355.7 103.7,363.5 102.9,364.7 102.6,366.2 102.9,367.2 102,370.4 101.3,371 100.3,370.9 99.7,371.5 99.1,371.7 97.3,374 97.2,375 98.6,378.9 98,379.2 97.2,378.1 96.3,379 96.3,379 "
    data-comarca=""
    data-capital=""
    data-pais=""
    style="fill:#cccccc;stroke:#000000;stroke-width:0.5;"
  />
</svg>