<svg xmlns="http://www.w3.org/2000/svg" viewBox="15, 360, 38, 28">
	<polygon
		id="catno_nxvw4XrLyoxbsaFHztBr39"
		class="catno"
		points="15.1,369.8 16.3,371.9 19.7,373.8 18.7,374.9 19.3,375.9 19.3,376.9 23.3,385.3 31.8,386.3 34.6,387.7 51.7,382.9 52.9,380.9 52.9,379.6 49.1,375.7 47.2,374.9 45.7,373 36.2,372.5 35.5,371.5 36,370.4 35.6,369.9 36,368.3 35.2,368.6 31.6,362.7 31.3,360.1 29.5,360.9 28.5,363.3 29,367.3 28.6,368.4 26.7,369 25.3,370.4 24.1,370.1 24.1,369.2 22.6,369.2 21.1,369.8 19.9,369 18.5,368.8 17.6,369.2 16.2,368.3 15.4,368.9 15.1,369.8 15.1,369.8 "
		data-info="<div>Territori de parla no catalana</div>"
		style="fill:#cccccc;stroke:#000000;stroke-width:0.5;"
	/>
</svg>