<svg xmlns="http://www.w3.org/2000/svg" viewBox="62 482 35 49">
  <polygon
    id="catno_f25f277c"
    class="catno"
    points="62.7,524 63.4,527.8 66.1,530.6 75.3,527.4 77.4,527.9 86.2,526.4 93.2,519.5 94.4,519.3 94.7,518.8 95.4,518.4 95.9,515.1 95.5,513.3 97,512.9 96.5,509.5 92.9,506.1 93.2,505.4 92.6,503 86.2,495.9 86.3,494.9 85.9,494.2 85.8,493.4 87.4,491.9 87.9,490.9 88.9,490.4 88.7,489.5 87.6,488.7 87.6,487.9 86.5,487.7 86,486.7 82.9,485.4 82.3,484.5 81.5,484.3 81,482.6 80,482.6 79.6,483.2 78.5,482.5 74.3,486.9 71.5,487.7 72.2,491.4 74.4,494.7 70.3,495 69.3,495.8 67.7,496.3 67,497.2 67.6,497.7 67.2,500.2 67.6,501.5 67.3,502.3 68.3,504.4 68.1,505.2 69,506.7 68.6,507.6 70.8,515.1 68.3,520.2 62.7,524 62.7,524 "
    data-comarca=""
    data-capital=""
    data-pais=""
    style="fill:#cccccc;stroke:#000000;stroke-width:0.5;"
  />
</svg>