<svg xmlns="http://www.w3.org/2000/svg" viewBox="55 544 29 46">
  <polygon
    id="catno_cc69ee77"
    class="catno"
    points="62.2,545.6 63.9,545.5 65.5,544.4 66.9,544.8 67.1,546.1 69,546.6 71,546.1 72.5,546.5 74.8,549.9 74.8,550.7 74.1,552 73.9,554.5 83.3,574.6 77.7,579.9 78.5,581.1 79.7,581.7 79.2,582.9 79.8,584.3 79.3,585 80.1,586.3 80.1,589.2 77.5,590 70.8,584.5 67.1,584.6 64.7,583.5 63.1,583.6 59.4,580.3 56.6,581.4 55.5,577.9 57.7,571.6 56.5,563.5 55.7,562.4 55.6,560.7 62.3,560.5 66.9,555.7 65.4,554.1 62.2,545.6 62.2,545.6 "
    data-comarca=""
    data-capital=""
    data-pais=""
    style="fill:#cccccc;stroke:#000000;stroke-width:0.5;"
  />
</svg>