<svg xmlns="http://www.w3.org/2000/svg" viewBox="38 389 57 59">
  <polygon
    id="catno_dd2d70928d"
    class="catno"
    points="63.4,435.3 65.9,438 66.1,439.4 69.1,441.6 69.9,443.7 65.9,445.3 66.1,446.3 67.1,447.1 70.7,445.4 76.3,446.7 80.1,445.1 84.9,447.4 86.4,447 91.5,436.7 90,434 88.6,432.8 80.8,431.6 80,421.4 85.4,416.3 86.5,415.9 94.4,419.7 94.1,409.3 90.5,407 88.5,411.6 87.2,412 85.9,410.7 85.6,409.3 82.5,404.6 80.4,403.3 76.1,404.7 73.6,407.6 70.9,406.7 68.5,404.1 69.9,401.4 68.7,400.3 68.5,398.2 69,397.1 69.5,397.1 69.6,395.7 68.1,392.5 66.9,393.3 61.1,389.9 60,390 58,390.9 52.8,390.5 51.1,391.5 49.8,391 47.9,391.9 47.6,392.3 46.9,391.4 45.7,391.2 39.7,394 39.3,395.8 40.4,398.7 38.9,408.9 39.6,409.2 40.1,411 44.6,416.7 42.9,419.7 43.5,426.5 43,428.8 43.7,430.5 50.6,436.8 52.9,437.3 53.4,436.3 53.3,435.2 55.8,432.9 58.7,434.9 60.2,432 63.4,429.6 64.2,428.1 67.6,426.7 69.5,426.7 70.6,427.2 68.4,430.4 67.8,433.1 63.4,435.3 63.4,435.3 "
    data-comarca=""
    data-capital=""
    data-pais=""
    style="fill:#cccccc;stroke:#000000;stroke-width:0.5;"
  />
</svg>