<svg xmlns="http://www.w3.org/2000/svg" viewBox="60 445 46 43">
	<polygon
		id="catno_fTjFkebLsMTg6GnM9qbJEe"
		class="catno"
		points="60.7,470 60.8,473.2 69.1,476.9 70.1,481.6 71,481.2 72.4,481.7 72.7,481.3 73.9,481.1 73.7,480 75.2,480.5 75.2,481.1 76.2,481.8 77.4,481.5 79.6,483.2 80,482.6 81,482.6 81.5,484.3 82.3,484.5 82.9,485.4 86,486.7 86.5,487.7 87.6,487.9 88.7,483.6 90.2,483 91.6,480.1 89.3,476 87.7,475.1 84.6,474.9 85.3,465.5 86.4,463.5 98.9,463.8 97.7,459.7 100,461.4 103.8,461.5 105.5,460 104.1,459 104.2,456.3 100.6,455.7 100.1,455.3 100.4,454.2 98.8,450.8 98.8,450 86.9,446.3 86.4,447 84.9,447.4 80.1,445.1 76.3,446.7 70.7,445.4 67.1,447.1 66.1,446.3 61.3,445.3 60.7,470 60.7,470 "
		data-info="<div>Territori de parla no catalana</div>"
		style="fill:#cccccc;stroke:#000000;stroke-width:0.5;"
	/>
</svg>