<svg xmlns="http://www.w3.org/2000/svg" viewBox="75 381 55 44">
  <polygon
    id="alt_palancia"
    class="pv"
    points="76.7,399.6 79.1,401.5 79.6,402.6 82.5,404.6 85.6,409.3 85.9,410.7 87.2,412 88.5,411.6 90.5,407 94.1,409.3 94.4,419.7 96.3,420.8 100.9,421.4 103.8,415 106.5,414.5 113.5,424.7 114.8,424.6 115.7,422.1 117.1,421.1 118.6,420.7 121.1,417.3 120.4,416.5 120.4,415.6 121.8,413.9 127.6,413.7 128.2,411.9 127.9,410.4 130,405.7 128.8,405.3 127.7,405.6 126.9,404.7 122.7,403.5 121.4,401.6 121.8,400.8 120.5,399.5 120.3,398.5 118.3,397.6 118,396.3 118.5,396 114.8,393 114.6,392 113,390.5 112.7,389.4 111.7,388.9 110.6,387.2 101.7,386.2 101.5,385.2 99.7,384.4 97.5,381.9 93.6,381.3 91.9,382.1 89.5,381.9 88,382.9 86.8,382.4 85.3,382.9 84.7,381.8 83.6,382.7 83.5,385.4 81.1,389 79.7,389.2 78.5,390 76.9,390.3 76,391.2 75.7,391.8 76.4,392.8 75.5,394.1 76.3,396.4 76,397.6 76.5,398.6 76.7,399.6 76.7,399.6 "
    data-comarca="Alt Palància"
    data-capital="Sogorb"
    data-pais="País Valencià"
    style="fill:#cccccc;stroke:#000000;stroke-width:0.5;"
  />
</svg>