<svg xmlns="http://www.w3.org/2000/svg" viewBox="290 154 49 49">
  <polygon
    id="anoia"
    class="cat"
    points="295.3,189.1 294.7,191.7 295.1,192 295.3,192.7 296.5,193.2 297.1,193.2 297.3,193.5 298.9,193.8 300,194.8 300.8,194.8 301.3,195.2 302.1,195.2 302.3,196.1 303.1,196.5 303.4,198.4 301.7,200.6 302.3,201.5 304.3,201.6 305,202.5 308.1,201 308.1,200.5 308.9,200.5 309.6,200.1 310,199.6 311.1,199.6 311.7,200.6 314,199.4 313.6,198.2 312.7,198.1 311.5,196.8 311.8,195.3 312.5,194.3 314.3,194 314.2,193 315.2,192.6 314.9,191.4 315.6,191.4 317.4,192.1 321.9,192.1 324,196.1 324.7,196.3 325.8,197.3 328.9,198.4 328.9,198.9 330.8,199.8 331.4,199 331.4,197.6 333.5,197.1 333,196.2 333.3,195.7 334.5,196.2 334.6,195.6 337.4,192.7 337.8,191.7 338.9,191.5 338.9,190.2 336,187.6 336,187.2 335.8,187.1 335.2,185.7 334.1,185.5 333.1,184.8 333.3,184.2 334,183.6 334.6,179.3 332.1,178.3 332.2,174.8 331.4,174.5 331.3,172.9 330.5,173.1 329.8,173.8 326.3,174.1 323.8,177.6 323,177.3 321.9,177.7 320,174.9 320.4,173.9 319.6,173 318.1,173.2 318.1,174.4 317.7,174.5 316.5,172.1 316.9,171.4 316.2,170.8 316.7,170 315.8,169.8 316.1,168.6 315.4,167.7 314.1,168.4 313.7,167.5 312.5,167.8 311,167.2 310.3,166.4 309.1,166.2 310.8,164.8 312,164.4 312.9,164.6 313.6,165 314.5,165 313.7,163.5 312.7,163.5 312.3,162.7 313.1,159 312.9,158.4 311.2,157 309.8,157.4 309.8,158.1 308.8,158.5 308.3,160.1 307.6,160.1 307,160.7 306.7,160.2 307.1,159.4 305.6,158.3 305,158.3 304.3,156.2 302.4,155.9 302.7,157.6 302.3,158.4 301.8,158.1 301.1,158.6 300.3,158 301.2,157.2 301.2,154.6 296.6,154.6 296.1,155.4 296.2,155.9 295.7,157.9 295.3,158.4 295.4,159.4 294.7,161.9 295.3,162.6 296.2,162.8 296.9,163.5 295.9,163.9 293,167 294.3,167.2 294,168.3 294.8,168.5 294.7,169.4 296.6,169.6 296.2,171 297,171.5 297.1,172.7 298.7,174.5 299.4,174.6 299.3,175.8 298,176.1 297.5,176.6 296.7,176.1 293.9,176.2 293.5,176.6 293.5,177.4 291.7,178 291.5,178.5 290.7,178.9 292,179.3 292.3,179.7 294.1,180.8 295.3,180.5 295.2,182.2 294.1,183 294,183.7 295.4,183.7 295.9,183.1 296.9,182.8 299.8,184.4 297.7,186.3 298.1,186.9 299.3,186.7 299.4,188.7 298.4,188.4 297.5,189.4 295.3,189.1 "
    data-comarca="Anoia"
    data-capital="Igualada"
    data-pais="Catalunya"
    style="fill:#cccccc;stroke:#000000;stroke-width:0.5;"
  />
</svg>