<svg xmlns="http://www.w3.org/2000/svg" viewBox="156 171 47 56">
  <polygon
    id="baix_cinca"
    class="franja"
    points="185,171.6 183.6,172.9 182.2,173.4 182.7,174.7 182,175.6 180.1,176.2 178.5,177.6 179.4,179.3 179.3,180.1 182,181.1 182.4,181.6 180.6,183.3 180.7,184.2 175.5,189 169.3,189.6 172.8,193.9 172.9,200 171.7,201.3 170.6,201.8 170.5,203.4 169.9,203.7 169.9,204.9 169,204.9 168.3,204.1 167.2,204.2 162.4,199.3 159.4,204.8 157.1,206.5 156.7,207.4 157.3,208.4 159,209.1 160.1,212.7 169.6,213.9 170.7,217.8 170.3,218.8 169.3,219 168.6,218.7 167.8,219.3 168,220 168.7,220.8 168.6,222.6 171.6,225.3 172.8,225.3 173.9,226.1 174.8,226.3 175.7,225.4 177.2,225.8 178.2,225.2 181.2,226.4 183.5,226.1 183.5,225.4 182.9,224.2 183.4,223.1 185.5,221.5 187.6,221.1 190.2,221.7 191.9,223 192.5,222.7 192.3,221.4 193.2,220.5 194.9,220.3 195,218.5 193,217.1 193.9,215.3 194.7,215.1 195.4,214.1 194.2,211.4 190.2,208.3 193,204.2 193.1,203.2 192.5,202.8 193.6,201.1 193.6,200.7 192.6,200 192.6,198.8 192.1,197.9 192.1,196.5 196.5,196.5 197.5,196.1 202.4,189.2 202.4,188.8 200.8,186.4 201.1,185.8 200.7,184.8 201.4,183.8 200.6,181.4 198.1,182.6 192.9,181.9 192.6,179.3 192.8,178.8 193.7,177.8 191.5,174 190.7,173.9 189.8,173 186,173 185,171.6 185,171.6 "
    data-comarca="Baix Cinca"
    data-capital="Fraga"
    data-pais="Franja de Ponent"
    style="fill:#cccccc;stroke:#000000;stroke-width:0.5;"
  />
</svg>