<svg xmlns="http://www.w3.org/2000/svg" viewBox="52 414 71 43">
  <polygon
    id="camp_de_turia"
    class="pv"
    points="86.5,415.9 100.9,421.4 103.8,415 106.5,414.5 113.5,424.7 118.6,424.4 120.6,427.8 119.6,430.3 120.3,431.5 120.2,433.7 122.6,439.5 119.8,440.6 119,441.5 118.4,443.2 117,444.4 115.4,444.4 115.3,445 114.3,446.5 111.3,444.3 111.8,445.5 111.6,446.5 110.1,446.8 108.7,445.8 107.7,446.9 107.5,448.7 107.8,449.5 106.5,451.8 106.6,455 106.2,456.3 100.6,455.7 100.1,455.3 100.4,454.2 98.8,450.8 98.8,450 86.9,446.3 87.6,444.1 89.5,441.7 90.4,439 90.8,438.6 91,437.3 91.5,436.7 90,434 88.6,432.8 80.8,431.6 80,421.4 85.4,416.3 86.5,415.9 "
    data-comarca="Camp de Túria"
    data-capital="Llíria"
    data-pais="País Valencià"
    style="fill:#cccccc;stroke:#000000;stroke-width:0.5;"
  />
  <polygon
    points="69.5,426.7 67.6,426.7 64.2,428.1 63.4,429.6 60.2,432 58.7,434.9 55.8,432.9 53.3,435.2 53.4,436.3 52.9,437.3 58,441.1 61.2,436.1 67.8,433.1 68.4,430.4 70.6,427.2 "
    style="fill:#cccccc;stroke:#000000;stroke-width:0.5;"
  />  
</svg>