<svg xmlns="http://www.w3.org/2000/svg" viewBox="310 63 42 30">
  <polygon
    id="cerdanya"
    class="cat"
    points="332.1,89.2 333.2,89.5 339.9,87.2 340.3,86.6 341.4,86.4 343,87.1 344.5,87 345,88.1 346.3,87.5 346.6,85.7 347.1,85 348.5,85.1 349.6,84.5 349.6,83.3 350.5,83.9 351.9,82.9 350.7,81.8 350.3,81.8 347.1,79 346,75.2 346.1,73.3 344.6,72.4 344.3,69.7 343.5,69.5 342.6,70.1 339.7,70.2 339.3,70.1 338.9,68.9 337.1,68 336.7,68.4 335.7,67.9 334.1,65.8 333.2,65.7 332.6,65.9 331.2,65 329.5,65.6 327.9,65.3 327.2,65.5 325.8,64.6 324.3,64.9 323.6,63.5 321.8,65 320.3,64.6 319.3,64.8 318.3,63.7 317.1,68.4 315.7,68.2 314.7,68.8 313.8,68.5 312.9,68.7 311.7,68.4 311,68.8 310.1,70.6 311.6,71.7 312.1,74 317.1,78 317.5,79.9 317.2,81.5 317.7,81.7 317.1,83.4 317.9,84.9 317.5,85.5 317.2,91.4 318.2,92.4 319.1,92.4 319.5,91.8 323,91.3 323.5,91.8 325.3,91.8 325.8,90.8 331.2,90.2 332.1,89.2 "
    data-comarca="Cerdanya"
    data-capital="Puigcerdà"
    data-pais="Catalunya"
    style="fill:#cccccc;stroke:#000000;stroke-width:0.5;"
  />
</svg>