<svg xmlns="http://www.w3.org/2000/svg" viewBox="361 35 44 39">
  <polygon
    id="conflent"
    class="nord"
    points="367.9,43.5 367.9,42.7 372.6,40.1 374.6,36.8 374.7,36.1 375.7,36.7 377.4,36.9 380.2,35.9 381.9,36 383.4,36.7 384,36.5 385.3,37.7 385.5,38.4 387.8,38.6 388.6,39.1 390.3,39.2 391.1,38.7 392,38.9 392.8,39.9 393.5,40.2 395.8,38.3 396.4,37.2 398,36 403.1,39.5 404.7,50.8 403.8,52.1 403.8,52.7 402.6,55.9 403.1,60.3 402.3,60.4 401.3,61.5 399.5,62.3 397.1,61.8 395.1,62.2 394.6,63 394,63 382.2,72 380.5,72.4 379.8,71.7 378.4,72.5 376.1,71 374.1,70.7 373.6,71.9 369.2,73.6 367.3,73.5 366.1,72.6 365.2,72.9 364.4,71.7 365.6,67.8 365.3,66.5 365.7,65.2 364.9,63.5 364,62.8 362.9,62.9 361.7,61.7 364.1,59.5 361.9,55.9 362.3,54.5 363.1,53.5 362.9,50.1 363.8,49.2 364,47.5 366.5,43.6 367.9,43.5 "
    data-comarca="Conflent"
    data-capital="Prada"
    data-pais="Catalunya Nord"
    style="fill:#cccccc;stroke:#000000;stroke-width:0.5;"
  />
</svg>