<svg xmlns="http://www.w3.org/2000/svg" viewBox="65 510 57 37">
  <polygon
    id="costera"
    class="pv"
    points="94.4,519.3 94.7,518.8 95.4,518.4 95.9,515.1 95.5,513.3 97,512.9 99.8,515.1 101.2,514.7 102.2,513.5 102.2,511.7 104.3,510.7 105.8,511.8 107.5,511.6 108.7,510.9 109.7,512.2 110.7,512 112.3,513.5 115.2,513.5 116.7,512.7 120.4,512.7 121.2,514.3 118.6,518.8 109.9,521.3 109.3,522.2 108.5,522 106.8,523.4 105.7,523.5 98.1,529.4 97.2,529.5 96.5,531 94.9,532.4 93.5,532.8 92.9,534.5 72.5,546.5 71,546.1 69,546.6 67.1,546.1 66.9,544.8 65.5,544.4 65,542.9 65.2,540.9 65.9,539.4 65.1,537.8 66.1,530.6 75.3,527.4 77.4,527.9 86.2,526.4 93.2,519.5 94.4,519.3 "
    data-comarca="Costera"
    data-capital="Xàtiva"
    data-pais="País Valencià"
    style="fill:#cccccc;stroke:#000000;stroke-width:0.5;"
  />
</svg>