<svg xmlns="http://www.w3.org/2000/svg" viewBox="319 215 30 18">
  <polygon
    id="garraf"
    class="cat"
    points="322.4,231.9 326.5,230.1 327.8,230.2 327.6,229.7 328.3,229.8 328.9,229.3 330.3,229 330.8,229.1 332.5,228.4 333.2,228.5 333.3,228.1 336.4,226.7 336.8,227 337.4,226.7 338,226.8 338.6,226.7 338.9,226.9 339.4,226.7 340.1,226.8 340.6,226.3 341.2,226.3 341.4,225.8 343.7,224.8 344,224.4 346.3,223.6 346.7,223.7 347.3,223.2 348.5,222.9 348,221.9 347.9,221.2 348.3,220.8 346.4,219.3 345.7,219.5 345,220.5 344.6,220.4 344.2,221 342.7,220.6 342.7,221 341.1,220.9 341.5,219.1 339.4,218.5 338.9,217.1 338.9,216 338,216.3 337,215.7 336.5,216 335.9,215.6 331.7,215.1 330.5,216.2 330.7,217.3 330.3,217.7 330.3,218.3 328.4,219.2 327.4,218.6 325.5,218.4 324.7,218.8 324.9,219.6 321.7,225.8 319.1,227.3 319.5,228 319.3,229.2 320.5,230.6 320,230.9 319.4,230.3 319.1,230.4 319.1,231.6 319.6,232.6 320.6,232.6 320.5,232.2 322.4,231.9 "
    data-comarca="Garraf"
    data-capital="Vilanova i la Geltrú"
    data-pais="Catalunya"
    style="fill:#cccccc;stroke:#000000;stroke-width:0.5;"
  />
</svg>