<svg xmlns="http://www.w3.org/2000/svg" viewBox="116 474 22 31">
  <polygon
    id="ribera_baixa"
    class="pv"
    points="134.6,487.9 137.2,493.3 135.4,494.2 136.9,503.5 135.7,503.8 131.8,501.2 130.7,501.6 129.6,503.7 128.7,504.1 118.2,492.8 118.1,491.3 119,490.9 121.4,486.1 117.9,485.7 118.1,481.2 116.7,477.8 117,477.2 116.6,474.6 119.7,475.1 120.3,476.2 121.1,476.3 121.6,477.1 122.5,477.5 125.8,476.3 127,476.8 127.3,477.7 128.2,478 130,480.3 131.7,481.1 134.6,487.9 134.6,487.9 "
    data-comarca="Ribera Baixa"
    data-capital="Sueca"
    data-pais="País Valencià"
    style="fill:#cccccc;stroke:#000000;stroke-width:0.5;"
  />
</svg>