<svg xmlns="http://www.w3.org/2000/svg" viewBox="391 118 56 53">
  <polygon
    id="selva"
    class="cat"
    points="403.6,161.1 404,162 405.4,162.5 410.1,161.2 410.3,162.7 409.4,164.8 410.1,166.7 410.5,166.9 412.1,165.9 413.4,166.1 414.5,163 415.6,161.8 417.1,162.7 422.3,158.7 424.2,159.9 427.3,159.6 427.4,160.2 426.3,161 426.9,165.7 425.8,167.1 427.8,170.7 429.3,167.7 432.8,165 433.7,164.9 435,164 436.1,164.1 437.7,163.5 438.4,163.5 439.3,163.1 439.4,162.7 440.6,162.6 441.4,162.1 442,162.2 442.5,161.7 442.7,161.2 443.4,160.4 444,160.2 443.9,159.9 444.3,159.6 444.9,158.7 444.9,158.3 446.1,156.8 445.5,156.5 444,154.8 442,156.3 440.8,154.9 436.4,154.4 434.4,151.8 435.1,150.4 436.2,150 436.2,149 435.4,149 435.4,149.7 434.4,149.7 434.1,148.8 434.8,144.9 434.4,144.9 433.4,144.3 432.8,143.4 431.9,143.6 431,144.4 430.9,145 430.1,141.1 430.7,137.9 430.1,137.4 430.4,136.8 428.1,137.1 427.1,138 423.6,135.1 419,135.6 419.2,134.5 417.2,132.4 416.3,132.4 415.3,131.8 415.1,130.9 416,130.6 416.2,129.3 415.9,129 415.7,127.7 415.1,126.8 414.7,125.2 415.2,124.8 415,123.9 414,124.1 412.8,123.8 412.4,124.2 411.7,123.2 410.4,122.9 409.1,121.1 409.2,120.2 408.7,119.7 407.9,121.4 407,121.7 404.5,120.6 404,121.3 403.7,122.4 402.7,122.6 399,118.9 397.8,119.8 398.1,120.6 400,122.4 399.7,123.3 399,123.7 399,124.7 399.7,125.1 399.5,125.6 399.5,126.2 397.8,127 397.7,126.4 396.7,127.3 398.1,128.2 397.6,128.7 397.6,129.3 397.1,129.8 397.2,130.5 395.4,130.8 393.8,130 392.7,130.9 393.5,131.1 394.1,132.2 393.8,133.5 394.3,134.1 395.6,133.9 396.3,134.5 397.3,134.5 397.9,136 397.9,137.3 394.7,140.4 394.6,141.3 395.4,141.9 395.1,144.2 394.5,144.6 394,145.4 393,145.4 392.3,146.1 392.9,147.5 391.5,149.4 391.7,150.7 392.4,151.9 393.7,151.8 394.8,152.7 395.1,153.8 396.3,154.4 397.7,153.9 397.4,155.1 400,156.7 402.1,157.1 402.4,157.8 402,158.3 402.4,158.8 402.4,159.1 403.8,160.5 403.6,161.1 "
    data-comarca="Selva"
    data-capital="Santa Coloma de Farnés"
    data-pais="Catalunya"
    style="fill:#cccccc;stroke:#000000;stroke-width:0.5;"
  />
</svg>